<?xml version="1.0" encoding="UTF-8"?>
<svg xmlns="http://www.w3.org/2000/svg" xmlns:xlink="http://www.w3.org/1999/xlink" width="400px" height="312px" viewBox="0 0 369 288" version="1.1">
<defs>
<filter id="alpha" filterUnits="objectBoundingBox" x="0%" y="0%" width="100%" height="100%">
  <feColorMatrix type="matrix" in="SourceGraphic" values="0 0 0 0 1 0 0 0 0 1 0 0 0 0 1 0 0 0 1 0"/>
</filter>
<mask id="mask0">
  <g filter="url(#alpha)">
<rect x="0" y="0" width="369" height="288" style="fill:rgb(0%,0%,0%);fill-opacity:0.2;stroke:none;"/>
  </g>
</mask>
<clipPath id="clip1">
  <rect x="0" y="0" width="369" height="288"/>
</clipPath>
<g id="surface5" clip-path="url(#clip1)">
<path style=" stroke:none;fill-rule:nonzero;fill:rgb(0%,0%,0%);fill-opacity:1;" d="M 151.589844 236.78125 L 147.347656 220.386719 L 143.601562 234.535156 Z M 151.589844 236.78125 "/>
</g>
<mask id="mask1">
  <g filter="url(#alpha)">
<rect x="0" y="0" width="369" height="288" style="fill:rgb(0%,0%,0%);fill-opacity:0.2;stroke:none;"/>
  </g>
</mask>
<clipPath id="clip2">
  <rect x="0" y="0" width="369" height="288"/>
</clipPath>
<g id="surface8" clip-path="url(#clip2)">
<path style=" stroke:none;fill-rule:nonzero;fill:rgb(0%,0%,0%);fill-opacity:1;" d="M 38.691406 229.6875 C 38.613281 228.390625 38.527344 227.050781 38.425781 225.65625 C 43.488281 212.996094 179.351562 235.410156 181.640625 250.089844 C 181.636719 251.4375 181.578125 252.742188 181.480469 254.019531 C 175.929688 239.527344 46.863281 218.226562 38.691406 229.6875 Z M 38.691406 229.6875 "/>
</g>
</defs>
<g id="surface1">
<path style=" stroke:none;fill-rule:nonzero;fill:rgb(95.686275%,63.529412%,38.039216%);fill-opacity:1;" d="M 306.773438 124.261719 C 306.773438 124.261719 298.101562 129.09375 300.597656 134.59375 C 303.09375 140.09375 338.546875 135.59375 338.546875 135.59375 C 338.546875 135.59375 336.050781 128.09375 331.554688 126.59375 C 327.0625 125.09375 306.773438 124.261719 306.773438 124.261719 Z M 306.773438 124.261719 "/>
<path style=" stroke:none;fill-rule:nonzero;fill:rgb(80%,80%,80%);fill-opacity:1;" d="M 303.394531 125.550781 C 305.136719 124.414062 307.074219 123.613281 309.109375 123.183594 C 315.894531 121.535156 323 121.757812 329.667969 123.824219 L 329.546875 123.726562 C 332.386719 125.226562 334.882812 127.3125 336.871094 129.839844 Z M 303.394531 125.550781 "/>
<path style=" stroke:none;fill-rule:nonzero;fill:rgb(80%,80%,80%);fill-opacity:1;" d="M 341.800781 149.203125 C 341.679688 150.996094 341.5625 152.792969 341.441406 154.582031 C 341.277344 158.335938 340.867188 162.074219 340.21875 165.773438 C 339.609375 168.867188 338.640625 171.9375 336.90625 174.574219 C 335.175781 177.203125 332.605469 179.378906 329.558594 180.179688 C 327.6875 180.625 325.742188 180.667969 323.855469 180.304688 C 320.296875 178.277344 317.882812 180.867188 321.4375 183.503906 C 322.246094 184.101562 323.082031 184.652344 323.949219 185.15625 L 325.5625 210.09375 L 295.605469 203.59375 L 301.449219 170.421875 C 300.554688 169.609375 299.734375 168.710938 299.003906 167.746094 C 295.652344 163.292969 294.5 157.488281 294.71875 151.917969 C 294.945312 146.34375 296.425781 140.90625 297.902344 135.53125 C 298.277344 134.074219 298.730469 132.636719 299.257812 131.226562 C 299.914062 131.496094 300.578125 131.742188 301.25 131.949219 C 305.558594 133.257812 310.140625 133.363281 314.644531 133.359375 C 322.65625 133.351562 330.660156 133.039062 338.65625 132.417969 C 340.492188 135.445312 341.609375 138.859375 341.914062 142.386719 C 342.046875 144.660156 342.007812 146.9375 341.800781 149.203125 Z M 341.800781 149.203125 "/>
<path style=" stroke:none;fill-rule:nonzero;fill:rgb(90.196078%,90.196078%,90.196078%);fill-opacity:1;" d="M 213.664062 216.890625 L 259.789062 220.988281 L 260.28125 221.035156 L 260.28125 23.964844 C 260.117188 23.851562 259.953125 23.734375 259.789062 23.621094 C 250.175781 16.886719 239.777344 11.355469 228.824219 7.148438 L 226.46875 39.699219 L 226.253906 42.679688 L 223.921875 74.960938 L 223.203125 84.890625 L 213.75 215.738281 Z M 213.664062 216.890625 "/>
<path style=" stroke:none;fill-rule:nonzero;fill:rgb(90.196078%,90.196078%,90.196078%);fill-opacity:1;" d="M 99.605469 20.296875 C 99.277344 20.503906 98.945312 20.714844 98.617188 20.933594 L 98.617188 221.035156 L 99.605469 220.945312 L 145.226562 216.890625 L 145.144531 215.738281 L 135.691406 84.890625 L 134.972656 74.960938 L 132.640625 42.679688 L 132.425781 39.699219 L 129.953125 5.566406 C 119.296875 9.265625 109.109375 14.207031 99.605469 20.296875 Z M 99.605469 20.296875 "/>
<path style=" stroke:none;fill-rule:nonzero;fill:rgb(90.196078%,90.196078%,90.196078%);fill-opacity:1;" d="M 98.617188 20.933594 C 97.953125 21.363281 97.289062 21.804688 96.632812 22.25 L 96.632812 223.765625 C 96.632812 228.800781 99.613281 233.019531 103.597656 234.09375 C 104.25 234.273438 104.921875 234.359375 105.597656 234.359375 L 253.796875 234.359375 C 254.46875 234.359375 255.140625 234.273438 255.789062 234.09375 C 257.269531 233.683594 258.613281 232.878906 259.671875 231.765625 C 261.695312 229.597656 262.804688 226.730469 262.757812 223.765625 L 262.757812 25.753906 C 261.941406 25.148438 261.117188 24.550781 260.28125 23.964844 C 260.117188 23.851562 259.953125 23.734375 259.789062 23.621094 L 259.789062 223.765625 C 259.789062 224.414062 259.710938 225.058594 259.558594 225.691406 C 258.855469 228.664062 256.53125 230.84375 253.796875 230.84375 L 105.597656 230.84375 C 102.292969 230.84375 99.605469 227.671875 99.605469 223.765625 L 99.605469 20.296875 C 99.277344 20.503906 98.945312 20.714844 98.617188 20.933594 Z M 98.617188 20.933594 "/>
<path style=" stroke:none;fill-rule:nonzero;fill:rgb(90.196078%,90.196078%,90.196078%);fill-opacity:1;" d="M 98.117188 39.703125 L 261.273438 39.703125 L 261.273438 42.679688 L 98.117188 42.679688 Z M 98.117188 39.703125 "/>
<path style=" stroke:none;fill-rule:nonzero;fill:rgb(90.196078%,90.196078%,90.196078%);fill-opacity:1;" d="M 211.304688 1.695312 C 210.316406 1.449219 209.328125 1.21875 208.328125 1.003906 L 208.328125 81.910156 L 211.304688 81.910156 Z M 211.304688 1.695312 "/>
<path style=" stroke:none;fill-rule:nonzero;fill:rgb(90.196078%,90.196078%,90.196078%);fill-opacity:1;" d="M 151.066406 0 C 150.070312 0.183594 149.078125 0.375 148.089844 0.578125 L 148.089844 81.910156 L 151.066406 81.910156 Z M 151.066406 0 "/>
<path style=" stroke:none;fill-rule:nonzero;fill:rgb(90.196078%,90.196078%,90.196078%);fill-opacity:1;" d="M 66.128906 229.144531 C 66.128906 230.855469 66.457031 232.546875 67.09375 234.136719 C 67.339844 234.75 67.632812 235.34375 67.96875 235.914062 C 68.402344 236.65625 68.90625 237.359375 69.476562 238.003906 C 72.011719 240.902344 75.675781 242.5625 79.523438 242.558594 L 274.914062 242.558594 C 282.308594 242.558594 288.304688 236.554688 288.304688 229.148438 C 288.304688 221.742188 282.308594 215.738281 274.914062 215.738281 L 79.523438 215.738281 C 72.132812 215.746094 66.140625 221.742188 66.128906 229.144531 Z M 66.128906 229.144531 "/>
<path style=" stroke:none;fill-rule:nonzero;fill:rgb(90.196078%,90.196078%,90.196078%);fill-opacity:1;" d="M 260.28125 84.890625 L 98.117188 84.890625 L 98.117188 74.960938 L 260.28125 74.960938 Z M 260.28125 84.890625 "/>
<path style=" stroke:none;fill-rule:nonzero;fill:rgb(90.196078%,90.196078%,90.196078%);fill-opacity:1;" d="M 186.144531 77.441406 L 172.257812 77.441406 C 172.257812 74.425781 174.699219 71.980469 177.710938 71.980469 L 180.6875 71.980469 C 183.699219 71.980469 186.144531 74.425781 186.144531 77.441406 Z M 186.144531 77.441406 "/>
<path style=" stroke:none;fill-rule:nonzero;fill:rgb(24.705882%,23.921569%,33.72549%);fill-opacity:1;" d="M 0 236.804688 C 4.335938 241.953125 9.03125 246.789062 14.039062 251.28125 L 354.867188 251.28125 C 359.878906 246.789062 364.574219 241.953125 368.910156 236.804688 Z M 0 236.804688 "/>
<path style=" stroke:none;fill-rule:nonzero;fill:rgb(18.431373%,18.039216%,25.490196%);fill-opacity:1;" d="M 92.453125 188.398438 L 92.453125 239.679688 L 128.332031 239.679688 L 128.332031 188.398438 C 128.332031 187.644531 127.839844 186.972656 127.117188 186.75 C 126.953125 186.695312 126.777344 186.667969 126.601562 186.671875 L 94.1875 186.671875 C 93.726562 186.667969 93.289062 186.851562 92.964844 187.175781 C 92.636719 187.5 92.457031 187.941406 92.453125 188.398438 Z M 106.457031 206.019531 C 106.476562 203.914062 108.183594 202.21875 110.285156 202.21875 C 112.386719 202.21875 114.097656 203.914062 114.117188 206.019531 L 114.117188 211.96875 C 114.105469 214.082031 112.394531 215.785156 110.285156 215.785156 C 108.179688 215.785156 106.464844 214.082031 106.457031 211.96875 Z M 106.457031 206.019531 "/>
<path style=" stroke:none;fill-rule:nonzero;fill:rgb(24.705882%,23.921569%,33.72549%);fill-opacity:1;" d="M 92.34375 238.039062 L 92.34375 242.984375 C 92.347656 243.519531 92.777344 243.949219 93.308594 243.953125 L 127.476562 243.953125 C 128.011719 243.953125 128.441406 243.519531 128.441406 242.984375 L 128.441406 238.039062 Z M 92.34375 238.039062 "/>
<path style=" stroke:none;fill-rule:nonzero;fill:rgb(24.705882%,23.921569%,33.72549%);fill-opacity:1;" d="M 36.015625 111.140625 L 36.015625 204.769531 C 36.019531 207.253906 38.027344 209.269531 40.511719 209.269531 L 179.074219 209.269531 C 181.554688 209.269531 183.5625 207.253906 183.566406 204.769531 L 183.566406 111.140625 C 183.558594 108.65625 181.550781 106.648438 179.074219 106.644531 L 40.511719 106.644531 C 38.03125 106.648438 36.023438 108.65625 36.015625 111.140625 Z M 36.015625 111.140625 "/>
<path style=" stroke:none;fill-rule:nonzero;fill:rgb(95.686275%,63.529412%,38.039216%);fill-opacity:1;" d="M 39.265625 112.304688 L 39.265625 203.613281 C 39.269531 204.941406 40.34375 206.019531 41.667969 206.019531 L 177.917969 206.019531 C 179.246094 206.019531 180.320312 204.941406 180.320312 203.613281 L 180.320312 112.304688 C 180.320312 110.976562 179.246094 109.898438 177.917969 109.894531 L 41.667969 109.894531 C 40.339844 109.898438 39.265625 110.976562 39.265625 112.304688 Z M 39.265625 112.304688 "/>
<path style=" stroke:none;fill-rule:nonzero;fill:rgb(18.431373%,18.039216%,25.490196%);fill-opacity:1;" d="M 67.050781 245.121094 C 67.332031 245.472656 67.757812 245.675781 68.207031 245.675781 L 149.269531 245.675781 C 149.714844 245.675781 150.140625 245.472656 150.425781 245.121094 C 150.707031 244.773438 150.816406 244.316406 150.726562 243.875 L 149.46875 237.890625 C 149.363281 237.394531 149.011719 236.984375 148.539062 236.804688 C 148.371094 236.738281 148.191406 236.703125 148.007812 236.703125 L 69.460938 236.703125 C 69.28125 236.703125 69.101562 236.738281 68.929688 236.804688 C 68.457031 236.984375 68.109375 237.394531 68.003906 237.890625 L 66.746094 243.875 C 66.652344 244.316406 66.765625 244.773438 67.050781 245.121094 Z M 67.050781 245.121094 "/>
<path style=" stroke:none;fill-rule:nonzero;fill:rgb(24.705882%,23.921569%,33.72549%);fill-opacity:1;" d="M 147.191406 239.28125 L 145.179688 239.28125 C 145.046875 239.28125 144.9375 239.171875 144.9375 239.039062 L 144.9375 238.027344 C 144.9375 237.890625 145.046875 237.78125 145.179688 237.78125 L 147.191406 237.78125 C 147.324219 237.78125 147.433594 237.890625 147.433594 238.027344 L 147.433594 239.039062 C 147.433594 239.171875 147.324219 239.28125 147.191406 239.28125 Z M 147.191406 239.28125 "/>
<path style=" stroke:none;fill-rule:nonzero;fill:rgb(24.705882%,23.921569%,33.72549%);fill-opacity:1;" d="M 142.195312 239.28125 L 140.1875 239.28125 C 140.054688 239.28125 139.945312 239.171875 139.945312 239.039062 L 139.945312 238.027344 C 139.945312 237.890625 140.054688 237.78125 140.1875 237.78125 L 142.195312 237.78125 C 142.332031 237.78125 142.441406 237.890625 142.441406 238.027344 L 142.441406 239.039062 C 142.441406 239.171875 142.332031 239.28125 142.195312 239.28125 Z M 142.195312 239.28125 "/>
<path style=" stroke:none;fill-rule:nonzero;fill:rgb(24.705882%,23.921569%,33.72549%);fill-opacity:1;" d="M 137.203125 239.28125 L 135.195312 239.28125 C 135.058594 239.28125 134.949219 239.171875 134.949219 239.039062 L 134.949219 238.027344 C 134.949219 237.890625 135.058594 237.78125 135.195312 237.78125 L 137.203125 237.78125 C 137.339844 237.78125 137.445312 237.890625 137.445312 238.027344 L 137.445312 239.039062 C 137.445312 239.171875 137.339844 239.28125 137.203125 239.28125 Z M 137.203125 239.28125 "/>
<path style=" stroke:none;fill-rule:nonzero;fill:rgb(24.705882%,23.921569%,33.72549%);fill-opacity:1;" d="M 132.210938 239.28125 L 130.199219 239.28125 C 130.066406 239.28125 129.957031 239.171875 129.957031 239.039062 L 129.957031 238.027344 C 129.957031 237.890625 130.066406 237.78125 130.199219 237.78125 L 132.210938 237.78125 C 132.34375 237.78125 132.453125 237.890625 132.453125 238.027344 L 132.453125 239.039062 C 132.453125 239.171875 132.34375 239.28125 132.210938 239.28125 Z M 132.210938 239.28125 "/>
<path style=" stroke:none;fill-rule:nonzero;fill:rgb(24.705882%,23.921569%,33.72549%);fill-opacity:1;" d="M 127.21875 239.28125 L 125.207031 239.28125 C 125.074219 239.28125 124.964844 239.171875 124.964844 239.039062 L 124.964844 238.027344 C 124.964844 237.890625 125.074219 237.78125 125.207031 237.78125 L 127.21875 237.78125 C 127.351562 237.78125 127.460938 237.890625 127.460938 238.027344 L 127.460938 239.039062 C 127.460938 239.171875 127.351562 239.28125 127.21875 239.28125 Z M 127.21875 239.28125 "/>
<path style=" stroke:none;fill-rule:nonzero;fill:rgb(24.705882%,23.921569%,33.72549%);fill-opacity:1;" d="M 122.222656 239.28125 L 120.214844 239.28125 C 120.078125 239.28125 119.972656 239.171875 119.972656 239.039062 L 119.972656 238.027344 C 119.972656 237.890625 120.078125 237.78125 120.214844 237.78125 L 122.222656 237.78125 C 122.359375 237.78125 122.46875 237.890625 122.46875 238.027344 L 122.46875 239.039062 C 122.46875 239.171875 122.359375 239.28125 122.222656 239.28125 Z M 122.222656 239.28125 "/>
<path style=" stroke:none;fill-rule:nonzero;fill:rgb(24.705882%,23.921569%,33.72549%);fill-opacity:1;" d="M 117.230469 239.28125 L 115.222656 239.28125 C 115.085938 239.28125 114.976562 239.171875 114.976562 239.039062 L 114.976562 238.027344 C 114.976562 237.890625 115.085938 237.78125 115.222656 237.78125 L 117.230469 237.78125 C 117.363281 237.78125 117.472656 237.890625 117.472656 238.027344 L 117.472656 239.039062 C 117.472656 239.171875 117.363281 239.28125 117.230469 239.28125 Z M 117.230469 239.28125 "/>
<path style=" stroke:none;fill-rule:nonzero;fill:rgb(24.705882%,23.921569%,33.72549%);fill-opacity:1;" d="M 112.238281 239.28125 L 110.226562 239.28125 C 110.09375 239.28125 109.984375 239.171875 109.984375 239.039062 L 109.984375 238.027344 C 109.984375 237.890625 110.09375 237.78125 110.226562 237.78125 L 112.238281 237.78125 C 112.371094 237.78125 112.480469 237.890625 112.480469 238.027344 L 112.480469 239.039062 C 112.480469 239.171875 112.371094 239.28125 112.238281 239.28125 Z M 112.238281 239.28125 "/>
<path style=" stroke:none;fill-rule:nonzero;fill:rgb(24.705882%,23.921569%,33.72549%);fill-opacity:1;" d="M 107.242188 239.28125 L 105.234375 239.28125 C 105.101562 239.28125 104.992188 239.171875 104.992188 239.039062 L 104.992188 238.027344 C 104.992188 237.890625 105.101562 237.78125 105.234375 237.78125 L 107.242188 237.78125 C 107.378906 237.78125 107.488281 237.890625 107.488281 238.027344 L 107.488281 239.039062 C 107.488281 239.171875 107.378906 239.28125 107.242188 239.28125 Z M 107.242188 239.28125 "/>
<path style=" stroke:none;fill-rule:nonzero;fill:rgb(24.705882%,23.921569%,33.72549%);fill-opacity:1;" d="M 102.25 239.28125 L 100.242188 239.28125 C 100.105469 239.28125 99.996094 239.171875 99.996094 239.039062 L 99.996094 238.027344 C 99.996094 237.890625 100.105469 237.78125 100.242188 237.78125 L 102.25 237.78125 C 102.386719 237.78125 102.496094 237.890625 102.496094 238.027344 L 102.496094 239.039062 C 102.496094 239.171875 102.386719 239.28125 102.25 239.28125 Z M 102.25 239.28125 "/>
<path style=" stroke:none;fill-rule:nonzero;fill:rgb(24.705882%,23.921569%,33.72549%);fill-opacity:1;" d="M 97.257812 239.28125 L 95.25 239.28125 C 95.113281 239.28125 95.003906 239.171875 95.003906 239.039062 L 95.003906 238.027344 C 95.003906 237.890625 95.113281 237.78125 95.25 237.78125 L 97.257812 237.78125 C 97.390625 237.78125 97.5 237.890625 97.5 238.027344 L 97.5 239.039062 C 97.5 239.171875 97.390625 239.28125 97.257812 239.28125 Z M 97.257812 239.28125 "/>
<path style=" stroke:none;fill-rule:nonzero;fill:rgb(24.705882%,23.921569%,33.72549%);fill-opacity:1;" d="M 92.265625 239.28125 L 90.253906 239.28125 C 90.121094 239.28125 90.011719 239.171875 90.011719 239.039062 L 90.011719 238.027344 C 90.011719 237.890625 90.121094 237.78125 90.253906 237.78125 L 92.265625 237.78125 C 92.398438 237.78125 92.507812 237.890625 92.507812 238.027344 L 92.507812 239.039062 C 92.507812 239.171875 92.398438 239.28125 92.265625 239.28125 Z M 92.265625 239.28125 "/>
<path style=" stroke:none;fill-rule:nonzero;fill:rgb(24.705882%,23.921569%,33.72549%);fill-opacity:1;" d="M 87.269531 239.28125 L 85.261719 239.28125 C 85.128906 239.28125 85.019531 239.171875 85.019531 239.039062 L 85.019531 238.027344 C 85.019531 237.890625 85.128906 237.78125 85.261719 237.78125 L 87.269531 237.78125 C 87.40625 237.78125 87.515625 237.890625 87.515625 238.027344 L 87.515625 239.039062 C 87.515625 239.171875 87.40625 239.28125 87.269531 239.28125 Z M 87.269531 239.28125 "/>
<path style=" stroke:none;fill-rule:nonzero;fill:rgb(24.705882%,23.921569%,33.72549%);fill-opacity:1;" d="M 82.277344 239.28125 L 80.269531 239.28125 C 80.132812 239.28125 80.023438 239.171875 80.023438 239.039062 L 80.023438 238.027344 C 80.023438 237.890625 80.132812 237.78125 80.269531 237.78125 L 82.277344 237.78125 C 82.414062 237.78125 82.523438 237.890625 82.523438 238.027344 L 82.523438 239.039062 C 82.523438 239.171875 82.414062 239.28125 82.277344 239.28125 Z M 82.277344 239.28125 "/>
<path style=" stroke:none;fill-rule:nonzero;fill:rgb(24.705882%,23.921569%,33.72549%);fill-opacity:1;" d="M 77.285156 239.28125 L 75.277344 239.28125 C 75.140625 239.28125 75.03125 239.171875 75.03125 239.039062 L 75.03125 238.027344 C 75.03125 237.890625 75.140625 237.78125 75.277344 237.78125 L 77.285156 237.78125 C 77.417969 237.78125 77.527344 237.890625 77.527344 238.027344 L 77.527344 239.039062 C 77.527344 239.171875 77.417969 239.28125 77.285156 239.28125 Z M 77.285156 239.28125 "/>
<path style=" stroke:none;fill-rule:nonzero;fill:rgb(24.705882%,23.921569%,33.72549%);fill-opacity:1;" d="M 72.292969 239.28125 L 70.28125 239.28125 C 70.148438 239.28125 70.039062 239.171875 70.039062 239.039062 L 70.039062 238.027344 C 70.039062 237.890625 70.148438 237.78125 70.28125 237.78125 L 72.292969 237.78125 C 72.425781 237.78125 72.535156 237.890625 72.535156 238.027344 L 72.535156 239.039062 C 72.535156 239.171875 72.425781 239.28125 72.292969 239.28125 Z M 72.292969 239.28125 "/>
<path style=" stroke:none;fill-rule:nonzero;fill:rgb(24.705882%,23.921569%,33.72549%);fill-opacity:1;" d="M 147.25 241.78125 L 145.238281 241.78125 C 145.105469 241.78125 144.996094 241.671875 144.996094 241.539062 L 144.996094 240.527344 C 144.996094 240.390625 145.105469 240.28125 145.238281 240.28125 L 147.25 240.28125 C 147.382812 240.28125 147.492188 240.390625 147.492188 240.527344 L 147.492188 241.539062 C 147.492188 241.671875 147.382812 241.78125 147.25 241.78125 Z M 147.25 241.78125 "/>
<path style=" stroke:none;fill-rule:nonzero;fill:rgb(24.705882%,23.921569%,33.72549%);fill-opacity:1;" d="M 142.253906 241.78125 L 140.246094 241.78125 C 140.113281 241.78125 140.003906 241.671875 140.003906 241.539062 L 140.003906 240.527344 C 140.003906 240.390625 140.113281 240.28125 140.246094 240.28125 L 142.253906 240.28125 C 142.390625 240.28125 142.5 240.390625 142.5 240.527344 L 142.5 241.539062 C 142.5 241.671875 142.390625 241.78125 142.253906 241.78125 Z M 142.253906 241.78125 "/>
<path style=" stroke:none;fill-rule:nonzero;fill:rgb(24.705882%,23.921569%,33.72549%);fill-opacity:1;" d="M 137.261719 241.78125 L 135.253906 241.78125 C 135.117188 241.78125 135.007812 241.671875 135.007812 241.539062 L 135.007812 240.527344 C 135.007812 240.390625 135.117188 240.28125 135.253906 240.28125 L 137.261719 240.28125 C 137.398438 240.28125 137.507812 240.390625 137.507812 240.527344 L 137.507812 241.539062 C 137.507812 241.671875 137.398438 241.78125 137.261719 241.78125 Z M 137.261719 241.78125 "/>
<path style=" stroke:none;fill-rule:nonzero;fill:rgb(24.705882%,23.921569%,33.72549%);fill-opacity:1;" d="M 132.269531 241.78125 L 130.261719 241.78125 C 130.125 241.78125 130.015625 241.671875 130.015625 241.539062 L 130.015625 240.527344 C 130.015625 240.390625 130.125 240.28125 130.261719 240.28125 L 132.269531 240.28125 C 132.402344 240.28125 132.511719 240.390625 132.511719 240.527344 L 132.511719 241.539062 C 132.511719 241.671875 132.402344 241.78125 132.269531 241.78125 Z M 132.269531 241.78125 "/>
<path style=" stroke:none;fill-rule:nonzero;fill:rgb(24.705882%,23.921569%,33.72549%);fill-opacity:1;" d="M 127.277344 241.78125 L 125.265625 241.78125 C 125.132812 241.78125 125.023438 241.671875 125.023438 241.539062 L 125.023438 240.527344 C 125.023438 240.390625 125.132812 240.28125 125.265625 240.28125 L 127.277344 240.28125 C 127.410156 240.28125 127.519531 240.390625 127.519531 240.527344 L 127.519531 241.539062 C 127.519531 241.671875 127.410156 241.78125 127.277344 241.78125 Z M 127.277344 241.78125 "/>
<path style=" stroke:none;fill-rule:nonzero;fill:rgb(24.705882%,23.921569%,33.72549%);fill-opacity:1;" d="M 122.28125 241.78125 L 120.273438 241.78125 C 120.140625 241.78125 120.03125 241.671875 120.03125 241.539062 L 120.03125 240.527344 C 120.03125 240.390625 120.140625 240.28125 120.273438 240.28125 L 122.28125 240.28125 C 122.417969 240.28125 122.527344 240.390625 122.527344 240.527344 L 122.527344 241.539062 C 122.527344 241.671875 122.417969 241.78125 122.28125 241.78125 Z M 122.28125 241.78125 "/>
<path style=" stroke:none;fill-rule:nonzero;fill:rgb(24.705882%,23.921569%,33.72549%);fill-opacity:1;" d="M 117.289062 241.78125 L 115.28125 241.78125 C 115.144531 241.78125 115.035156 241.671875 115.035156 241.539062 L 115.035156 240.527344 C 115.035156 240.390625 115.144531 240.28125 115.28125 240.28125 L 117.289062 240.28125 C 117.425781 240.28125 117.535156 240.390625 117.535156 240.527344 L 117.535156 241.539062 C 117.535156 241.671875 117.425781 241.78125 117.289062 241.78125 Z M 117.289062 241.78125 "/>
<path style=" stroke:none;fill-rule:nonzero;fill:rgb(24.705882%,23.921569%,33.72549%);fill-opacity:1;" d="M 112.296875 241.78125 L 110.289062 241.78125 C 110.152344 241.78125 110.042969 241.671875 110.042969 241.539062 L 110.042969 240.527344 C 110.042969 240.390625 110.152344 240.28125 110.289062 240.28125 L 112.296875 240.28125 C 112.429688 240.28125 112.539062 240.390625 112.539062 240.527344 L 112.539062 241.539062 C 112.539062 241.671875 112.429688 241.78125 112.296875 241.78125 Z M 112.296875 241.78125 "/>
<path style=" stroke:none;fill-rule:nonzero;fill:rgb(24.705882%,23.921569%,33.72549%);fill-opacity:1;" d="M 107.304688 241.78125 L 105.292969 241.78125 C 105.160156 241.78125 105.050781 241.671875 105.050781 241.539062 L 105.050781 240.527344 C 105.050781 240.390625 105.160156 240.28125 105.292969 240.28125 L 107.304688 240.28125 C 107.4375 240.28125 107.546875 240.390625 107.546875 240.527344 L 107.546875 241.539062 C 107.546875 241.671875 107.4375 241.78125 107.304688 241.78125 Z M 107.304688 241.78125 "/>
<path style=" stroke:none;fill-rule:nonzero;fill:rgb(24.705882%,23.921569%,33.72549%);fill-opacity:1;" d="M 102.308594 241.78125 L 100.300781 241.78125 C 100.167969 241.78125 100.058594 241.671875 100.058594 241.539062 L 100.058594 240.527344 C 100.058594 240.390625 100.167969 240.28125 100.300781 240.28125 L 102.308594 240.28125 C 102.445312 240.28125 102.554688 240.390625 102.554688 240.527344 L 102.554688 241.539062 C 102.554688 241.671875 102.445312 241.78125 102.308594 241.78125 Z M 102.308594 241.78125 "/>
<path style=" stroke:none;fill-rule:nonzero;fill:rgb(24.705882%,23.921569%,33.72549%);fill-opacity:1;" d="M 97.316406 241.78125 L 95.308594 241.78125 C 95.171875 241.78125 95.0625 241.671875 95.0625 241.539062 L 95.0625 240.527344 C 95.0625 240.390625 95.171875 240.28125 95.308594 240.28125 L 97.316406 240.28125 C 97.453125 240.28125 97.558594 240.390625 97.558594 240.527344 L 97.558594 241.539062 C 97.558594 241.671875 97.453125 241.78125 97.316406 241.78125 Z M 97.316406 241.78125 "/>
<path style=" stroke:none;fill-rule:nonzero;fill:rgb(24.705882%,23.921569%,33.72549%);fill-opacity:1;" d="M 92.324219 241.78125 L 90.3125 241.78125 C 90.179688 241.78125 90.070312 241.671875 90.070312 241.539062 L 90.070312 240.527344 C 90.070312 240.390625 90.179688 240.28125 90.3125 240.28125 L 92.324219 240.28125 C 92.457031 240.28125 92.566406 240.390625 92.566406 240.527344 L 92.566406 241.539062 C 92.566406 241.671875 92.457031 241.78125 92.324219 241.78125 Z M 92.324219 241.78125 "/>
<path style=" stroke:none;fill-rule:nonzero;fill:rgb(24.705882%,23.921569%,33.72549%);fill-opacity:1;" d="M 87.332031 241.78125 L 85.320312 241.78125 C 85.1875 241.78125 85.078125 241.671875 85.078125 241.539062 L 85.078125 240.527344 C 85.078125 240.390625 85.1875 240.28125 85.320312 240.28125 L 87.332031 240.28125 C 87.464844 240.28125 87.574219 240.390625 87.574219 240.527344 L 87.574219 241.539062 C 87.574219 241.671875 87.464844 241.78125 87.332031 241.78125 Z M 87.332031 241.78125 "/>
<path style=" stroke:none;fill-rule:nonzero;fill:rgb(24.705882%,23.921569%,33.72549%);fill-opacity:1;" d="M 82.335938 241.78125 L 80.328125 241.78125 C 80.191406 241.78125 80.085938 241.671875 80.085938 241.539062 L 80.085938 240.527344 C 80.085938 240.390625 80.191406 240.28125 80.328125 240.28125 L 82.335938 240.28125 C 82.472656 240.28125 82.582031 240.390625 82.582031 240.527344 L 82.582031 241.539062 C 82.582031 241.671875 82.472656 241.78125 82.335938 241.78125 Z M 82.335938 241.78125 "/>
<path style=" stroke:none;fill-rule:nonzero;fill:rgb(24.705882%,23.921569%,33.72549%);fill-opacity:1;" d="M 77.34375 241.78125 L 75.335938 241.78125 C 75.199219 241.78125 75.089844 241.671875 75.089844 241.539062 L 75.089844 240.527344 C 75.089844 240.390625 75.199219 240.28125 75.335938 240.28125 L 77.34375 240.28125 C 77.476562 240.28125 77.585938 240.390625 77.585938 240.527344 L 77.585938 241.539062 C 77.585938 241.671875 77.476562 241.78125 77.34375 241.78125 Z M 77.34375 241.78125 "/>
<path style=" stroke:none;fill-rule:nonzero;fill:rgb(24.705882%,23.921569%,33.72549%);fill-opacity:1;" d="M 72.351562 241.78125 L 70.339844 241.78125 C 70.207031 241.78125 70.097656 241.671875 70.097656 241.539062 L 70.097656 240.527344 C 70.097656 240.390625 70.207031 240.28125 70.339844 240.28125 L 72.351562 240.28125 C 72.484375 240.28125 72.59375 240.390625 72.59375 240.527344 L 72.59375 241.539062 C 72.59375 241.671875 72.484375 241.78125 72.351562 241.78125 Z M 72.351562 241.78125 "/>
<path style=" stroke:none;fill-rule:nonzero;fill:rgb(24.705882%,23.921569%,33.72549%);fill-opacity:1;" d="M 123.28125 244.78125 L 103.796875 244.78125 C 103.660156 244.78125 103.550781 244.671875 103.550781 244.539062 L 103.550781 243.527344 C 103.550781 243.390625 103.660156 243.28125 103.796875 243.28125 L 123.28125 243.28125 C 123.417969 243.28125 123.523438 243.390625 123.523438 243.527344 L 123.523438 244.539062 C 123.523438 244.671875 123.417969 244.78125 123.28125 244.78125 Z M 123.28125 244.78125 "/>
<path style=" stroke:none;fill-rule:nonzero;fill:rgb(24.705882%,23.921569%,33.72549%);fill-opacity:1;" d="M 48.515625 122.472656 L 176.003906 122.472656 C 176.28125 122.46875 176.5 122.242188 176.5 121.964844 C 176.5 121.691406 176.28125 121.464844 176.003906 121.457031 L 48.515625 121.457031 C 48.238281 121.464844 48.019531 121.691406 48.019531 121.964844 C 48.019531 122.242188 48.238281 122.46875 48.515625 122.472656 Z M 48.515625 122.472656 "/>
<path style=" stroke:none;fill-rule:nonzero;fill:rgb(24.705882%,23.921569%,33.72549%);fill-opacity:1;" d="M 170.296875 115.824219 C 170.296875 114.144531 168.964844 112.78125 167.324219 112.78125 C 165.683594 112.78125 164.355469 114.144531 164.355469 115.824219 C 164.355469 117.503906 165.683594 118.867188 167.324219 118.867188 C 168.964844 118.867188 170.296875 117.503906 170.296875 115.824219 Z M 170.296875 115.824219 "/>
<path style=" stroke:none;fill-rule:nonzero;fill:rgb(24.705882%,23.921569%,33.72549%);fill-opacity:1;" d="M 160.03125 115.824219 C 160.03125 114.144531 158.703125 112.78125 157.0625 112.78125 C 155.421875 112.78125 154.089844 114.144531 154.089844 115.824219 C 154.089844 117.503906 155.421875 118.867188 157.0625 118.867188 C 158.703125 118.867188 160.03125 117.503906 160.03125 115.824219 Z M 160.03125 115.824219 "/>
<path style=" stroke:none;fill-rule:nonzero;fill:rgb(24.705882%,23.921569%,33.72549%);fill-opacity:1;" d="M 149.769531 115.824219 C 149.769531 114.144531 148.4375 112.78125 146.796875 112.78125 C 145.15625 112.78125 143.828125 114.144531 143.828125 115.824219 C 143.828125 117.503906 145.15625 118.867188 146.796875 118.867188 C 148.4375 118.867188 149.769531 117.503906 149.769531 115.824219 Z M 149.769531 115.824219 "/>
<path style=" stroke:none;fill-rule:nonzero;fill:rgb(24.705882%,23.921569%,33.72549%);fill-opacity:1;" d="M 54.152344 114.089844 C 54.148438 114.390625 54.394531 114.640625 54.695312 114.640625 L 61.984375 114.640625 C 62.285156 114.632812 62.523438 114.386719 62.523438 114.085938 C 62.523438 113.789062 62.285156 113.542969 61.984375 113.535156 L 54.695312 113.535156 C 54.394531 113.539062 54.148438 113.785156 54.152344 114.089844 Z M 54.152344 114.089844 "/>
<path style=" stroke:none;fill-rule:nonzero;fill:rgb(24.705882%,23.921569%,33.72549%);fill-opacity:1;" d="M 54.152344 116.164062 C 54.148438 116.46875 54.394531 116.714844 54.695312 116.714844 L 61.984375 116.714844 C 62.285156 116.707031 62.527344 116.464844 62.527344 116.164062 C 62.527344 115.863281 62.285156 115.617188 61.984375 115.609375 L 54.695312 115.609375 C 54.394531 115.613281 54.148438 115.863281 54.152344 116.164062 Z M 54.152344 116.164062 "/>
<path style=" stroke:none;fill-rule:nonzero;fill:rgb(24.705882%,23.921569%,33.72549%);fill-opacity:1;" d="M 54.152344 118.234375 C 54.148438 118.539062 54.394531 118.785156 54.695312 118.789062 L 61.984375 118.789062 C 62.285156 118.78125 62.523438 118.539062 62.523438 118.238281 C 62.523438 117.9375 62.285156 117.691406 61.984375 117.683594 L 54.695312 117.683594 C 54.394531 117.6875 54.148438 117.933594 54.152344 118.234375 Z M 54.152344 118.234375 "/>
<path style=" stroke:none;fill-rule:nonzero;fill:rgb(90.196078%,90.196078%,90.196078%);fill-opacity:1;" d="M 53.785156 134.273438 L 56.40625 134.273438 C 57.199219 134.273438 57.84375 134.917969 57.84375 135.710938 C 57.84375 136.507812 57.199219 137.152344 56.40625 137.152344 L 53.785156 137.152344 C 52.992188 137.152344 52.347656 136.507812 52.347656 135.710938 C 52.347656 134.917969 52.992188 134.273438 53.785156 134.273438 Z M 53.785156 134.273438 "/>
<path style=" stroke:none;fill-rule:nonzero;fill:rgb(90.196078%,90.196078%,90.196078%);fill-opacity:1;" d="M 83.746094 134.273438 L 86.363281 134.273438 C 87.160156 134.273438 87.800781 134.917969 87.800781 135.710938 C 87.800781 136.507812 87.160156 137.152344 86.363281 137.152344 L 83.746094 137.152344 C 82.949219 137.152344 82.304688 136.507812 82.304688 135.710938 C 82.304688 134.917969 82.949219 134.273438 83.746094 134.273438 Z M 83.746094 134.273438 "/>
<path style=" stroke:none;fill-rule:nonzero;fill:rgb(90.196078%,90.196078%,90.196078%);fill-opacity:1;" d="M 92.234375 134.273438 L 94.851562 134.273438 C 95.648438 134.273438 96.289062 134.917969 96.289062 135.710938 C 96.289062 136.507812 95.648438 137.152344 94.851562 137.152344 L 92.234375 137.152344 C 91.4375 137.152344 90.796875 136.507812 90.796875 135.710938 C 90.796875 134.917969 91.4375 134.273438 92.234375 134.273438 Z M 92.234375 134.273438 "/>
<path style=" stroke:none;fill-rule:nonzero;fill:rgb(90.196078%,90.196078%,90.196078%);fill-opacity:1;" d="M 61.933594 134.03125 L 78.214844 134.03125 C 79.007812 134.03125 79.652344 134.675781 79.652344 135.472656 C 79.652344 136.265625 79.007812 136.910156 78.214844 136.910156 L 61.933594 136.910156 C 61.140625 136.910156 60.496094 136.265625 60.496094 135.472656 C 60.496094 134.675781 61.140625 134.03125 61.933594 134.03125 Z M 61.933594 134.03125 "/>
<path style=" stroke:none;fill-rule:nonzero;fill:rgb(90.196078%,90.196078%,90.196078%);fill-opacity:1;" d="M 101.878906 134.03125 L 118.160156 134.03125 C 118.953125 134.03125 119.597656 134.675781 119.597656 135.472656 C 119.597656 136.265625 118.953125 136.910156 118.160156 136.910156 L 101.878906 136.910156 C 101.085938 136.910156 100.441406 136.265625 100.441406 135.472656 C 100.441406 134.675781 101.085938 134.03125 101.878906 134.03125 Z M 101.878906 134.03125 "/>
<path style=" stroke:none;fill-rule:nonzero;fill:rgb(90.196078%,90.196078%,90.196078%);fill-opacity:1;" d="M 61.773438 140.773438 L 64.394531 140.773438 C 65.1875 140.773438 65.832031 141.417969 65.832031 142.210938 C 65.832031 143.007812 65.1875 143.652344 64.394531 143.652344 L 61.773438 143.652344 C 60.980469 143.652344 60.335938 143.007812 60.335938 142.210938 C 60.335938 141.417969 60.980469 140.773438 61.773438 140.773438 Z M 61.773438 140.773438 "/>
<path style=" stroke:none;fill-rule:nonzero;fill:rgb(90.196078%,90.196078%,90.196078%);fill-opacity:1;" d="M 91.734375 140.773438 L 94.351562 140.773438 C 95.148438 140.773438 95.792969 141.417969 95.792969 142.210938 C 95.792969 143.007812 95.148438 143.652344 94.351562 143.652344 L 91.734375 143.652344 C 90.941406 143.652344 90.296875 143.007812 90.296875 142.210938 C 90.296875 141.417969 90.941406 140.773438 91.734375 140.773438 Z M 91.734375 140.773438 "/>
<path style=" stroke:none;fill-rule:nonzero;fill:rgb(90.196078%,90.196078%,90.196078%);fill-opacity:1;" d="M 100.222656 140.773438 L 102.839844 140.773438 C 103.636719 140.773438 104.28125 141.417969 104.28125 142.210938 C 104.28125 143.007812 103.636719 143.652344 102.839844 143.652344 L 100.222656 143.652344 C 99.429688 143.652344 98.785156 143.007812 98.785156 142.210938 C 98.785156 141.417969 99.429688 140.773438 100.222656 140.773438 Z M 100.222656 140.773438 "/>
<path style=" stroke:none;fill-rule:nonzero;fill:rgb(90.196078%,90.196078%,90.196078%);fill-opacity:1;" d="M 69.921875 140.53125 L 86.203125 140.53125 C 87 140.53125 87.640625 141.175781 87.640625 141.972656 C 87.640625 142.765625 87 143.410156 86.203125 143.410156 L 69.921875 143.410156 C 69.128906 143.410156 68.484375 142.765625 68.484375 141.972656 C 68.484375 141.175781 69.128906 140.53125 69.921875 140.53125 Z M 69.921875 140.53125 "/>
<path style=" stroke:none;fill-rule:nonzero;fill:rgb(90.196078%,90.196078%,90.196078%);fill-opacity:1;" d="M 109.871094 140.53125 L 126.148438 140.53125 C 126.945312 140.53125 127.589844 141.175781 127.589844 141.972656 C 127.589844 142.765625 126.945312 143.410156 126.148438 143.410156 L 109.871094 143.410156 C 109.074219 143.410156 108.429688 142.765625 108.429688 141.972656 C 108.429688 141.175781 109.074219 140.53125 109.871094 140.53125 Z M 109.871094 140.53125 "/>
<path style=" stroke:none;fill-rule:nonzero;fill:rgb(90.196078%,90.196078%,90.196078%);fill-opacity:1;" d="M 69.761719 147.273438 L 72.382812 147.273438 C 73.175781 147.273438 73.820312 147.917969 73.820312 148.710938 C 73.820312 149.507812 73.175781 150.152344 72.382812 150.152344 L 69.761719 150.152344 C 68.96875 150.152344 68.324219 149.507812 68.324219 148.710938 C 68.324219 147.917969 68.96875 147.273438 69.761719 147.273438 Z M 69.761719 147.273438 "/>
<path style=" stroke:none;fill-rule:nonzero;fill:rgb(90.196078%,90.196078%,90.196078%);fill-opacity:1;" d="M 99.722656 147.273438 L 102.34375 147.273438 C 103.136719 147.273438 103.78125 147.917969 103.78125 148.710938 C 103.78125 149.507812 103.136719 150.152344 102.34375 150.152344 L 99.722656 150.152344 C 98.929688 150.152344 98.285156 149.507812 98.285156 148.710938 C 98.285156 147.917969 98.929688 147.273438 99.722656 147.273438 Z M 99.722656 147.273438 "/>
<path style=" stroke:none;fill-rule:nonzero;fill:rgb(90.196078%,90.196078%,90.196078%);fill-opacity:1;" d="M 108.210938 147.273438 L 110.832031 147.273438 C 111.625 147.273438 112.269531 147.917969 112.269531 148.710938 C 112.269531 149.507812 111.625 150.152344 110.832031 150.152344 L 108.210938 150.152344 C 107.417969 150.152344 106.773438 149.507812 106.773438 148.710938 C 106.773438 147.917969 107.417969 147.273438 108.210938 147.273438 Z M 108.210938 147.273438 "/>
<path style=" stroke:none;fill-rule:nonzero;fill:rgb(90.196078%,90.196078%,90.196078%);fill-opacity:1;" d="M 77.914062 147.03125 L 94.191406 147.03125 C 94.988281 147.03125 95.632812 147.675781 95.632812 148.472656 C 95.632812 149.265625 94.988281 149.910156 94.191406 149.910156 L 77.914062 149.910156 C 77.117188 149.910156 76.472656 149.265625 76.472656 148.472656 C 76.472656 147.675781 77.117188 147.03125 77.914062 147.03125 Z M 77.914062 147.03125 "/>
<path style=" stroke:none;fill-rule:nonzero;fill:rgb(90.196078%,90.196078%,90.196078%);fill-opacity:1;" d="M 117.859375 147.03125 L 134.140625 147.03125 C 134.933594 147.03125 135.578125 147.675781 135.578125 148.472656 C 135.578125 149.265625 134.933594 149.910156 134.140625 149.910156 L 117.859375 149.910156 C 117.0625 149.910156 116.421875 149.265625 116.421875 148.472656 C 116.421875 147.675781 117.0625 147.03125 117.859375 147.03125 Z M 117.859375 147.03125 "/>
<path style=" stroke:none;fill-rule:nonzero;fill:rgb(90.196078%,90.196078%,90.196078%);fill-opacity:1;" d="M 77.753906 153.773438 L 80.371094 153.773438 C 81.167969 153.773438 81.808594 154.417969 81.808594 155.210938 C 81.808594 156.007812 81.167969 156.652344 80.371094 156.652344 L 77.753906 156.652344 C 76.957031 156.652344 76.316406 156.007812 76.316406 155.210938 C 76.316406 154.417969 76.957031 153.773438 77.753906 153.773438 Z M 77.753906 153.773438 "/>
<path style=" stroke:none;fill-rule:nonzero;fill:rgb(90.196078%,90.196078%,90.196078%);fill-opacity:1;" d="M 107.710938 153.773438 L 110.332031 153.773438 C 111.125 153.773438 111.769531 154.417969 111.769531 155.210938 C 111.769531 156.007812 111.125 156.652344 110.332031 156.652344 L 107.710938 156.652344 C 106.917969 156.652344 106.273438 156.007812 106.273438 155.210938 C 106.273438 154.417969 106.917969 153.773438 107.710938 153.773438 Z M 107.710938 153.773438 "/>
<path style=" stroke:none;fill-rule:nonzero;fill:rgb(90.196078%,90.196078%,90.196078%);fill-opacity:1;" d="M 116.199219 153.773438 L 118.820312 153.773438 C 119.613281 153.773438 120.257812 154.417969 120.257812 155.210938 C 120.257812 156.007812 119.613281 156.652344 118.820312 156.652344 L 116.199219 156.652344 C 115.40625 156.652344 114.761719 156.007812 114.761719 155.210938 C 114.761719 154.417969 115.40625 153.773438 116.199219 153.773438 Z M 116.199219 153.773438 "/>
<path style=" stroke:none;fill-rule:nonzero;fill:rgb(90.196078%,90.196078%,90.196078%);fill-opacity:1;" d="M 85.902344 153.53125 L 102.183594 153.53125 C 102.976562 153.53125 103.621094 154.175781 103.621094 154.972656 C 103.621094 155.765625 102.976562 156.410156 102.183594 156.410156 L 85.902344 156.410156 C 85.109375 156.410156 84.464844 155.765625 84.464844 154.972656 C 84.464844 154.175781 85.109375 153.53125 85.902344 153.53125 Z M 85.902344 153.53125 "/>
<path style=" stroke:none;fill-rule:nonzero;fill:rgb(90.196078%,90.196078%,90.196078%);fill-opacity:1;" d="M 83.746094 179.617188 L 86.363281 179.617188 C 87.160156 179.617188 87.800781 180.261719 87.800781 181.058594 C 87.800781 181.855469 87.160156 182.5 86.363281 182.5 L 83.746094 182.5 C 82.949219 182.5 82.304688 181.855469 82.304688 181.058594 C 82.304688 180.261719 82.949219 179.617188 83.746094 179.617188 Z M 83.746094 179.617188 "/>
<path style=" stroke:none;fill-rule:nonzero;fill:rgb(90.196078%,90.196078%,90.196078%);fill-opacity:1;" d="M 92.234375 179.617188 L 94.851562 179.617188 C 95.648438 179.617188 96.289062 180.261719 96.289062 181.058594 C 96.289062 181.855469 95.648438 182.5 94.851562 182.5 L 92.234375 182.5 C 91.4375 182.5 90.796875 181.855469 90.796875 181.058594 C 90.796875 180.261719 91.4375 179.617188 92.234375 179.617188 Z M 92.234375 179.617188 "/>
<path style=" stroke:none;fill-rule:nonzero;fill:rgb(90.196078%,90.196078%,90.196078%);fill-opacity:1;" d="M 101.878906 179.859375 L 118.160156 179.859375 C 118.953125 179.859375 119.597656 180.503906 119.597656 181.296875 C 119.597656 182.09375 118.953125 182.738281 118.160156 182.738281 L 101.878906 182.738281 C 101.085938 182.738281 100.441406 182.09375 100.441406 181.296875 C 100.441406 180.503906 101.085938 179.859375 101.878906 179.859375 Z M 101.878906 179.859375 "/>
<path style=" stroke:none;fill-rule:nonzero;fill:rgb(90.196078%,90.196078%,90.196078%);fill-opacity:1;" d="M 53.785156 179.617188 L 56.40625 179.617188 C 57.199219 179.617188 57.84375 180.261719 57.84375 181.058594 C 57.84375 181.855469 57.199219 182.5 56.40625 182.5 L 53.785156 182.5 C 52.992188 182.5 52.347656 181.855469 52.347656 181.058594 C 52.347656 180.261719 52.992188 179.617188 53.785156 179.617188 Z M 53.785156 179.617188 "/>
<path style=" stroke:none;fill-rule:nonzero;fill:rgb(90.196078%,90.196078%,90.196078%);fill-opacity:1;" d="M 61.933594 179.859375 L 78.214844 179.859375 C 79.007812 179.859375 79.652344 180.503906 79.652344 181.296875 C 79.652344 182.09375 79.007812 182.738281 78.214844 182.738281 L 61.933594 182.738281 C 61.140625 182.738281 60.496094 182.09375 60.496094 181.296875 C 60.496094 180.503906 61.140625 179.859375 61.933594 179.859375 Z M 61.933594 179.859375 "/>
<path style=" stroke:none;fill-rule:nonzero;fill:rgb(90.196078%,90.196078%,90.196078%);fill-opacity:1;" d="M 61.773438 173.117188 L 64.394531 173.117188 C 65.1875 173.117188 65.832031 173.761719 65.832031 174.558594 C 65.832031 175.355469 65.1875 176 64.394531 176 L 61.773438 176 C 60.980469 176 60.335938 175.355469 60.335938 174.558594 C 60.335938 173.761719 60.980469 173.117188 61.773438 173.117188 Z M 61.773438 173.117188 "/>
<path style=" stroke:none;fill-rule:nonzero;fill:rgb(90.196078%,90.196078%,90.196078%);fill-opacity:1;" d="M 91.734375 173.117188 L 94.351562 173.117188 C 95.148438 173.117188 95.792969 173.761719 95.792969 174.558594 C 95.792969 175.355469 95.148438 176 94.351562 176 L 91.734375 176 C 90.941406 176 90.296875 175.355469 90.296875 174.558594 C 90.296875 173.761719 90.941406 173.117188 91.734375 173.117188 Z M 91.734375 173.117188 "/>
<path style=" stroke:none;fill-rule:nonzero;fill:rgb(90.196078%,90.196078%,90.196078%);fill-opacity:1;" d="M 100.222656 173.117188 L 102.839844 173.117188 C 103.636719 173.117188 104.28125 173.761719 104.28125 174.558594 C 104.28125 175.355469 103.636719 176 102.839844 176 L 100.222656 176 C 99.429688 176 98.785156 175.355469 98.785156 174.558594 C 98.785156 173.761719 99.429688 173.117188 100.222656 173.117188 Z M 100.222656 173.117188 "/>
<path style=" stroke:none;fill-rule:nonzero;fill:rgb(90.196078%,90.196078%,90.196078%);fill-opacity:1;" d="M 69.921875 173.359375 L 86.203125 173.359375 C 87 173.359375 87.640625 174.003906 87.640625 174.796875 C 87.640625 175.59375 87 176.238281 86.203125 176.238281 L 69.921875 176.238281 C 69.128906 176.238281 68.484375 175.59375 68.484375 174.796875 C 68.484375 174.003906 69.128906 173.359375 69.921875 173.359375 Z M 69.921875 173.359375 "/>
<path style=" stroke:none;fill-rule:nonzero;fill:rgb(90.196078%,90.196078%,90.196078%);fill-opacity:1;" d="M 69.761719 166.617188 L 72.382812 166.617188 C 73.175781 166.617188 73.820312 167.261719 73.820312 168.058594 C 73.820312 168.855469 73.175781 169.5 72.382812 169.5 L 69.761719 169.5 C 68.96875 169.5 68.324219 168.855469 68.324219 168.058594 C 68.324219 167.261719 68.96875 166.617188 69.761719 166.617188 Z M 69.761719 166.617188 "/>
<path style=" stroke:none;fill-rule:nonzero;fill:rgb(90.196078%,90.196078%,90.196078%);fill-opacity:1;" d="M 99.722656 166.617188 L 102.34375 166.617188 C 103.136719 166.617188 103.78125 167.261719 103.78125 168.058594 C 103.78125 168.855469 103.136719 169.5 102.34375 169.5 L 99.722656 169.5 C 98.929688 169.5 98.285156 168.855469 98.285156 168.058594 C 98.285156 167.261719 98.929688 166.617188 99.722656 166.617188 Z M 99.722656 166.617188 "/>
<path style=" stroke:none;fill-rule:nonzero;fill:rgb(90.196078%,90.196078%,90.196078%);fill-opacity:1;" d="M 108.210938 166.617188 L 110.832031 166.617188 C 111.625 166.617188 112.269531 167.261719 112.269531 168.058594 C 112.269531 168.855469 111.625 169.5 110.832031 169.5 L 108.210938 169.5 C 107.417969 169.5 106.773438 168.855469 106.773438 168.058594 C 106.773438 167.261719 107.417969 166.617188 108.210938 166.617188 Z M 108.210938 166.617188 "/>
<path style=" stroke:none;fill-rule:nonzero;fill:rgb(90.196078%,90.196078%,90.196078%);fill-opacity:1;" d="M 77.914062 166.859375 L 94.191406 166.859375 C 94.988281 166.859375 95.632812 167.503906 95.632812 168.296875 C 95.632812 169.09375 94.988281 169.738281 94.191406 169.738281 L 77.914062 169.738281 C 77.117188 169.738281 76.472656 169.09375 76.472656 168.296875 C 76.472656 167.503906 77.117188 166.859375 77.914062 166.859375 Z M 77.914062 166.859375 "/>
<path style=" stroke:none;fill-rule:nonzero;fill:rgb(90.196078%,90.196078%,90.196078%);fill-opacity:1;" d="M 77.753906 160.117188 L 80.371094 160.117188 C 81.167969 160.117188 81.808594 160.761719 81.808594 161.558594 C 81.808594 162.355469 81.167969 163 80.371094 163 L 77.753906 163 C 76.957031 163 76.316406 162.355469 76.316406 161.558594 C 76.316406 160.761719 76.957031 160.117188 77.753906 160.117188 Z M 77.753906 160.117188 "/>
<path style=" stroke:none;fill-rule:nonzero;fill:rgb(90.196078%,90.196078%,90.196078%);fill-opacity:1;" d="M 107.710938 160.117188 L 110.332031 160.117188 C 111.125 160.117188 111.769531 160.761719 111.769531 161.558594 C 111.769531 162.355469 111.125 163 110.332031 163 L 107.710938 163 C 106.917969 163 106.273438 162.355469 106.273438 161.558594 C 106.273438 160.761719 106.917969 160.117188 107.710938 160.117188 Z M 107.710938 160.117188 "/>
<path style=" stroke:none;fill-rule:nonzero;fill:rgb(90.196078%,90.196078%,90.196078%);fill-opacity:1;" d="M 116.199219 160.117188 L 118.820312 160.117188 C 119.613281 160.117188 120.257812 160.761719 120.257812 161.558594 C 120.257812 162.355469 119.613281 163 118.820312 163 L 116.199219 163 C 115.40625 163 114.761719 162.355469 114.761719 161.558594 C 114.761719 160.761719 115.40625 160.117188 116.199219 160.117188 Z M 116.199219 160.117188 "/>
<path style=" stroke:none;fill-rule:nonzero;fill:rgb(90.196078%,90.196078%,90.196078%);fill-opacity:1;" d="M 85.902344 160.359375 L 102.183594 160.359375 C 102.976562 160.359375 103.621094 161.003906 103.621094 161.796875 C 103.621094 162.59375 102.976562 163.238281 102.183594 163.238281 L 85.902344 163.238281 C 85.109375 163.238281 84.464844 162.59375 84.464844 161.796875 C 84.464844 161.003906 85.109375 160.359375 85.902344 160.359375 Z M 85.902344 160.359375 "/>
<path style=" stroke:none;fill-rule:nonzero;fill:rgb(24.705882%,23.921569%,33.72549%);fill-opacity:1;" d="M 46.984375 273.519531 C 47.289062 273.675781 47.601562 273.828125 47.90625 273.980469 C 55.792969 277.929688 62.105469 280.175781 70.738281 282.636719 C 71.46875 274.484375 72.171875 260.160156 72.855469 251.28125 C 73.035156 248.976562 73.214844 247.039062 73.390625 245.675781 C 73.433594 244.949219 73.582031 244.234375 73.828125 243.550781 L 73.800781 245.675781 L 73.726562 251.28125 L 73.289062 283.335938 C 84.03125 286.179688 95.0625 287.773438 106.167969 288.078125 C 106.746094 288.09375 107.316406 288.105469 107.863281 288.113281 C 108.058594 288.121094 108.25 288.125 108.4375 288.125 C 109.0625 288.128906 109.679688 288.136719 110.304688 288.136719 C 122.007812 288.144531 133.667969 286.726562 145.027344 283.921875 C 144.785156 275.855469 144.539062 261.691406 144.304688 251.28125 C 144.253906 249.246094 144.210938 247.351562 144.160156 245.675781 C 144.066406 242.09375 143.964844 239.515625 143.871094 238.648438 C 143.953125 238.804688 144.019531 238.964844 144.066406 239.136719 C 144.527344 241.289062 144.84375 243.476562 145.007812 245.675781 C 145.183594 247.351562 145.359375 249.246094 145.53125 251.28125 C 146.460938 262.09375 147.429688 276.800781 148.429688 283.035156 C 154.371094 281.410156 160.207031 279.402344 165.890625 277.019531 C 168.886719 275.769531 171.828125 274.421875 174.71875 272.976562 C 174.167969 269.375 173.59375 265.339844 173.003906 261.15625 C 172.546875 257.910156 172.070312 254.574219 171.585938 251.28125 C 170.839844 246.191406 159.707031 210.621094 159.003906 209.269531 C 158.398438 208.113281 157.824219 207.023438 157.28125 206.019531 C 155.964844 203.578125 154.84375 201.636719 154.015625 200.40625 C 150.550781 195.140625 145.390625 191.222656 139.394531 189.300781 L 139.246094 189.261719 L 139.140625 189.304688 L 128.929688 186.164062 L 127.4375 185.703125 L 126.433594 185.394531 L 122.898438 182.699219 L 120.976562 181.234375 L 119.171875 179.859375 L 115.648438 177.175781 L 93.824219 178.519531 L 89.574219 188.765625 L 80.054688 192.25 L 79.890625 192.175781 L 79.746094 192.113281 L 79.597656 192.15625 C 73.601562 194.078125 68.445312 197.996094 64.976562 203.261719 C 64.507812 203.964844 63.9375 204.894531 63.292969 206.019531 C 62.746094 206.976562 62.144531 208.066406 61.496094 209.269531 C 60.574219 210.984375 59.5625 212.921875 58.496094 215.015625 C 58.261719 215.476562 58.019531 215.945312 57.78125 216.421875 C 57.335938 217.300781 56.886719 218.199219 56.429688 219.113281 C 55.363281 221.238281 54.265625 223.460938 53.167969 225.714844 C 52.214844 227.671875 51.25 231.691406 50.300781 236.804688 C 49.519531 241.054688 48.738281 246.066406 47.984375 251.28125 C 46.996094 258.039062 48.050781 266.136719 47.15625 272.355469 C 47.101562 272.75 47.042969 273.136719 46.984375 273.519531 Z M 46.984375 273.519531 "/>
<use xlink:href="#surface5" mask="url(#mask0)"/>
<path style=" stroke:none;fill-rule:nonzero;fill:rgb(18.431373%,18.039216%,25.490196%);fill-opacity:1;" d="M 38.6875 226.101562 C 40.207031 247.039062 38.632812 256.261719 47.011719 273.523438 C 54.632812 277.261719 62.574219 280.308594 70.738281 282.636719 C 71.589844 282.875 72.4375 283.109375 73.289062 283.335938 C 84.03125 286.179688 95.0625 287.773438 106.167969 288.078125 C 106.746094 288.09375 107.316406 288.105469 107.863281 288.113281 C 108.058594 288.121094 108.25 288.125 108.4375 288.125 C 109.0625 288.128906 109.679688 288.136719 110.304688 288.136719 C 122.007812 288.144531 133.667969 286.726562 145.027344 283.921875 C 146.167969 283.640625 147.300781 283.34375 148.429688 283.035156 C 154.371094 281.410156 160.207031 279.402344 165.890625 277.019531 C 168.886719 275.769531 171.828125 274.421875 174.71875 272.976562 C 175.371094 272.644531 176.027344 272.316406 176.671875 271.976562 C 179.980469 266.144531 181.863281 259.054688 181.902344 250.535156 C 179.613281 235.855469 43.75 213.441406 38.6875 226.101562 Z M 38.6875 226.101562 "/>
<use xlink:href="#surface8" mask="url(#mask1)"/>
<path style=" stroke:none;fill-rule:nonzero;fill:rgb(18.431373%,18.039216%,25.490196%);fill-opacity:1;" d="M 7.902344 236.59375 C 8.355469 237.910156 9.601562 238.785156 10.992188 238.757812 L 24.21875 238.417969 C 25.621094 238.390625 26.835938 237.441406 27.207031 236.089844 L 29.078125 216.046875 C 29.742188 216.347656 30.464844 216.496094 31.195312 216.480469 C 33.855469 216.410156 35.957031 214.195312 35.890625 211.53125 C 35.824219 208.863281 33.613281 206.757812 30.953125 206.824219 C 30.660156 206.820312 30.371094 206.851562 30.085938 206.914062 C 29.457031 206.234375 28.574219 205.851562 27.652344 205.859375 L 7.304688 206.386719 C 7.132812 206.394531 6.964844 206.414062 6.800781 206.449219 C 5.898438 206.617188 5.113281 207.167969 4.644531 207.960938 C 4.179688 208.753906 4.078125 209.710938 4.367188 210.582031 Z M 29.460938 214.683594 L 30.792969 209.90625 C 30.945312 209.355469 30.949219 208.773438 30.804688 208.222656 C 30.867188 208.21875 30.925781 208.191406 30.988281 208.191406 C 32.890625 208.152344 34.464844 209.660156 34.511719 211.5625 C 34.554688 213.46875 33.054688 215.046875 31.152344 215.097656 C 30.5625 215.117188 29.976562 214.972656 29.460938 214.683594 Z M 29.460938 214.683594 "/>
<path style=" stroke:none;fill-rule:nonzero;fill:rgb(24.705882%,23.921569%,33.72549%);fill-opacity:1;" d="M 6.800781 206.449219 C 7.234375 208.933594 12.109375 210.675781 17.96875 210.375 C 23.359375 210.125 27.765625 208.230469 28.570312 205.984375 C 28.273438 205.894531 27.960938 205.855469 27.652344 205.859375 L 7.304688 206.386719 C 7.132812 206.394531 6.964844 206.414062 6.800781 206.449219 Z M 6.800781 206.449219 "/>
<path style=" stroke:none;fill-rule:nonzero;fill:rgb(95.686275%,63.529412%,38.039216%);fill-opacity:1;" d="M 19.042969 225.578125 C 19.070312 225.570312 19.09375 225.5625 19.117188 225.546875 L 21.992188 223.664062 C 22.0625 223.617188 22.105469 223.539062 22.105469 223.453125 C 22.105469 223.371094 22.0625 223.289062 21.992188 223.246094 L 19.003906 221.285156 C 18.929688 221.238281 18.835938 221.230469 18.753906 221.269531 C 18.675781 221.3125 18.625 221.390625 18.617188 221.480469 C 18.613281 221.570312 18.65625 221.65625 18.730469 221.703125 L 21.398438 223.453125 L 18.84375 225.128906 C 18.742188 225.195312 18.703125 225.324219 18.753906 225.4375 C 18.800781 225.546875 18.925781 225.609375 19.042969 225.578125 Z M 19.042969 225.578125 "/>
<path style=" stroke:none;fill-rule:nonzero;fill:rgb(95.686275%,63.529412%,38.039216%);fill-opacity:1;" d="M 14.507812 225.789062 C 14.605469 225.761719 14.679688 225.679688 14.691406 225.578125 C 14.707031 225.480469 14.65625 225.378906 14.570312 225.328125 L 11.921875 223.808594 L 14.480469 221.90625 C 14.589844 221.824219 14.613281 221.667969 14.53125 221.554688 C 14.449219 221.445312 14.292969 221.421875 14.183594 221.503906 L 11.316406 223.636719 C 11.25 223.6875 11.210938 223.765625 11.214844 223.851562 C 11.222656 223.933594 11.269531 224.011719 11.34375 224.054688 L 14.320312 225.761719 C 14.375 225.796875 14.441406 225.804688 14.507812 225.789062 Z M 14.507812 225.789062 "/>
<path style=" stroke:none;fill-rule:nonzero;fill:rgb(95.686275%,63.529412%,38.039216%);fill-opacity:1;" d="M 18.757812 227.230469 C 18.78125 227.222656 18.804688 227.214844 18.824219 227.199219 C 18.882812 227.164062 18.921875 227.109375 18.9375 227.046875 C 18.953125 226.980469 18.945312 226.914062 18.910156 226.855469 L 14.835938 220.152344 C 14.765625 220.035156 14.613281 219.996094 14.496094 220.070312 C 14.378906 220.140625 14.339844 220.292969 14.410156 220.414062 L 18.484375 227.117188 C 18.539062 227.210938 18.652344 227.253906 18.757812 227.230469 Z M 18.757812 227.230469 "/>
<path style=" stroke:none;fill-rule:nonzero;fill:rgb(24.705882%,23.921569%,33.72549%);fill-opacity:1;" d="M 290.609375 199.09375 L 335.050781 199.09375 L 335.050781 238.09375 L 290.609375 238.09375 Z M 290.609375 199.09375 "/>
<path style=" stroke:none;fill-rule:nonzero;fill:rgb(80%,80%,80%);fill-opacity:1;" d="M 341.636719 144.617188 C 340.8125 149.507812 341.535156 154.53125 343.707031 158.988281 C 344.507812 160.628906 345.503906 162.601562 344.527344 164.144531 C 343.96875 164.925781 343.09375 165.410156 342.136719 165.46875 C 341.195312 165.519531 340.25 165.398438 339.347656 165.109375 "/>
<path style=" stroke:none;fill-rule:nonzero;fill:rgb(24.705882%,23.921569%,33.72549%);fill-opacity:1;" d="M 304.09375 128.34375 C 304.09375 127.652344 303.421875 127.09375 302.59375 127.09375 C 301.765625 127.09375 301.097656 127.652344 301.097656 128.34375 C 301.097656 129.03125 301.765625 129.59375 302.59375 129.59375 C 303.421875 129.59375 304.09375 129.03125 304.09375 128.34375 Z M 304.09375 128.34375 "/>
<path style=" stroke:none;fill-rule:nonzero;fill:rgb(24.705882%,23.921569%,33.72549%);fill-opacity:1;" d="M 309.585938 128.84375 C 309.585938 128.152344 308.914062 127.59375 308.085938 127.59375 C 307.257812 127.59375 306.589844 128.152344 306.589844 128.84375 C 306.589844 129.53125 307.257812 130.09375 308.085938 130.09375 C 308.914062 130.09375 309.585938 129.53125 309.585938 128.84375 Z M 309.585938 128.84375 "/>
<path style=" stroke:none;fill-rule:nonzero;fill:rgb(24.705882%,23.921569%,33.72549%);fill-opacity:1;" d="M 315.078125 131.34375 C 315.078125 130.652344 314.40625 130.09375 313.578125 130.09375 C 312.753906 130.09375 312.082031 130.652344 312.082031 131.34375 C 312.082031 132.03125 312.753906 132.59375 313.578125 132.59375 C 314.40625 132.59375 315.078125 132.03125 315.078125 131.34375 Z M 315.078125 131.34375 "/>
<path style=" stroke:none;fill-rule:nonzero;fill:rgb(24.705882%,23.921569%,33.72549%);fill-opacity:1;" d="M 321.570312 129.84375 C 321.570312 129.152344 320.898438 128.59375 320.070312 128.59375 C 319.242188 128.59375 318.574219 129.152344 318.574219 129.84375 C 318.574219 130.53125 319.242188 131.09375 320.070312 131.09375 C 320.898438 131.09375 321.570312 130.53125 321.570312 129.84375 Z M 321.570312 129.84375 "/>
<path style=" stroke:none;fill-rule:nonzero;fill:rgb(24.705882%,23.921569%,33.72549%);fill-opacity:1;" d="M 183.71875 154.785156 C 190.992188 152.761719 199.097656 154.929688 204.71875 159.894531 C 207.753906 162.589844 209.976562 166.078125 211.148438 169.96875 C 212.585938 174.597656 212.820312 179.480469 212.972656 184.292969 C 213.140625 189.613281 213.28125 194.9375 213.4375 200.257812 C 213.585938 205.332031 213.601562 210.425781 213.941406 215.492188 C 214.222656 219.742188 214.902344 224.15625 217.175781 227.839844 C 219.28125 231.257812 222.609375 233.566406 226.367188 234.839844 C 230.179688 236.128906 234.289062 236.429688 238.285156 236.402344 C 242.9375 236.386719 247.585938 236.019531 252.179688 235.300781 C 260.914062 233.898438 269.539062 230.328125 274.871094 222.957031 C 277.328125 219.609375 278.707031 215.59375 278.828125 211.441406 C 278.9375 206.605469 277.394531 201.917969 275.707031 197.453125 C 274.058594 193.101562 272.28125 188.820312 271.238281 184.273438 C 270.273438 180.019531 269.8125 175.664062 269.867188 171.300781 C 269.957031 162.574219 272.042969 153.980469 275.972656 146.191406 C 277.960938 142.1875 280.484375 138.472656 283.46875 135.152344 C 286.550781 131.796875 290.363281 129.027344 294.898438 128.117188 C 297.113281 127.660156 299.402344 127.75 301.574219 128.386719 C 302.5 128.664062 302.894531 127.214844 301.972656 126.941406 C 297.480469 125.59375 292.597656 126.617188 288.613281 128.957031 C 284.699219 131.253906 281.601562 134.703125 278.976562 138.359375 C 268.75 152.886719 265.726562 171.300781 270.773438 188.335938 C 273.4375 197.082031 279.234375 206.183594 276.746094 215.648438 C 274.566406 223.929688 267.011719 229.558594 259.210938 232.101562 C 254.476562 233.644531 249.515625 234.296875 244.5625 234.636719 C 240.382812 234.921875 236.140625 235.101562 231.96875 234.566406 C 228.140625 234.070312 224.199219 232.898438 221.226562 230.324219 C 217.972656 227.5 216.484375 223.445312 215.835938 219.28125 C 215.101562 214.570312 215.210938 209.714844 215.074219 204.960938 L 214.601562 188.742188 C 214.335938 179.578125 214.5625 169.425781 208.613281 161.832031 C 203.789062 155.839844 196.476562 152.40625 188.789062 152.527344 C 186.941406 152.570312 185.101562 152.84375 183.320312 153.339844 C 182.933594 153.457031 182.714844 153.863281 182.820312 154.253906 C 182.929688 154.644531 183.324219 154.878906 183.71875 154.785156 Z M 183.71875 154.785156 "/>
<path style=" stroke:none;fill-rule:nonzero;fill:rgb(100%,71.372549%,71.372549%);fill-opacity:1;" d="M 77.378906 145.296875 C 79.585938 161.027344 94.105469 171.992188 109.816406 169.796875 C 125.53125 167.601562 136.496094 153.078125 134.320312 137.339844 L 134.261719 136.933594 C 131.734375 121.421875 117.246094 110.808594 101.714844 113.089844 C 86.1875 115.375 75.359375 129.707031 77.386719 145.292969 Z M 77.378906 145.296875 "/>
<path style=" stroke:none;fill-rule:nonzero;fill:rgb(18.431373%,18.039216%,25.490196%);fill-opacity:1;" d="M 102.71875 169.097656 C 101.234375 166.097656 99.707031 162.878906 100.109375 159.558594 C 100.515625 156.234375 103.753906 153.050781 106.953125 154.027344 C 108.863281 154.609375 110.3125 156.492188 112.3125 156.582031 C 115.058594 156.707031 116.621094 153.554688 117.46875 150.933594 L 120.914062 140.261719 C 127.5625 145.492188 119.144531 140.011719 127.378906 138.097656 C 130.609375 137.34375 133.871094 135.890625 135.757812 133.160156 C 137.644531 130.429688 137.621094 126.203125 135.011719 124.152344 C 133.734375 123.144531 132.035156 122.769531 130.8125 121.695312 C 129.253906 120.328125 128.777344 118.097656 129.632812 116.210938 C 130.492188 114.324219 132.480469 113.21875 134.535156 113.496094 L 125.765625 112.429688 L 128.359375 107.6875 C 126.484375 109.179688 123.863281 109.390625 121.503906 108.972656 C 119.144531 108.554688 116.917969 107.589844 114.609375 106.949219 C 103.519531 103.871094 90.664062 109.328125 85.160156 119.449219 C 80.738281 117.984375 75.875 119.410156 72.933594 123.027344 C 70.597656 126.019531 69.972656 130 69.894531 133.796875 C 69.75 141.285156 71.402344 148.695312 74.71875 155.40625 C 75.753906 157.492188 76.972656 159.539062 78.730469 161.0625 C 80.488281 162.589844 100.335938 171.042969 102.628906 170.644531 "/>
<path style=" stroke:none;fill-rule:nonzero;fill:rgb(90.196078%,90.196078%,90.196078%);fill-opacity:1;" d="M 310.085938 149.34375 C 310.089844 150.640625 309.921875 151.933594 309.589844 153.1875 L 309.589844 153.191406 C 309.585938 153.21875 309.574219 153.242188 309.570312 153.269531 C 308.5625 156.984375 306.15625 159.59375 303.34375 159.59375 C 300.546875 159.59375 298.148438 157.003906 297.125 153.316406 C 297.058594 153.0625 296.996094 152.808594 296.941406 152.542969 C 296.871094 152.246094 296.816406 151.941406 296.773438 151.628906 C 296.730469 151.378906 296.703125 151.121094 296.675781 150.863281 C 296.640625 150.503906 296.617188 150.144531 296.613281 149.769531 L 296.613281 149.761719 C 296.601562 149.621094 296.601562 149.484375 296.601562 149.34375 L 296.601562 149.21875 L 296.605469 149.210938 C 296.609375 148.578125 296.648438 147.945312 296.730469 147.316406 C 296.765625 147.054688 296.808594 146.796875 296.855469 146.542969 C 296.917969 146.234375 296.980469 145.929688 297.0625 145.628906 C 297.125 145.363281 297.203125 145.109375 297.28125 144.851562 C 297.390625 144.511719 297.511719 144.183594 297.644531 143.867188 C 297.730469 143.664062 297.820312 143.460938 297.910156 143.269531 C 299.140625 140.738281 301.117188 139.09375 303.34375 139.09375 C 306.425781 139.09375 309.019531 142.238281 309.824219 146.527344 C 309.835938 146.59375 309.847656 146.65625 309.855469 146.722656 L 309.855469 146.726562 C 310.007812 147.589844 310.085938 148.464844 310.085938 149.34375 Z M 310.085938 149.34375 "/>
<path style=" stroke:none;fill-rule:nonzero;fill:rgb(95.686275%,63.529412%,38.039216%);fill-opacity:1;" d="M 297.976562 143.488281 C 297.96875 143.675781 297.832031 143.835938 297.644531 143.867188 C 297.730469 143.664062 297.820312 143.460938 297.910156 143.269531 C 297.953125 143.332031 297.976562 143.410156 297.976562 143.488281 Z M 297.976562 143.488281 "/>
<path style=" stroke:none;fill-rule:nonzero;fill:rgb(95.686275%,63.529412%,38.039216%);fill-opacity:1;" d="M 299.484375 143.03125 L 303.878906 143.03125 C 304.09375 143.03125 304.265625 143.207031 304.265625 143.421875 C 304.265625 143.636719 304.09375 143.808594 303.878906 143.808594 L 299.484375 143.808594 C 299.269531 143.808594 299.097656 143.636719 299.097656 143.421875 C 299.097656 143.207031 299.269531 143.03125 299.484375 143.03125 Z M 299.484375 143.03125 "/>
<path style=" stroke:none;fill-rule:nonzero;fill:rgb(95.686275%,63.529412%,38.039216%);fill-opacity:1;" d="M 297.839844 145.238281 C 297.839844 145.453125 297.667969 145.628906 297.453125 145.628906 L 297.0625 145.628906 C 297.125 145.363281 297.203125 145.109375 297.28125 144.851562 L 297.453125 144.851562 C 297.664062 144.851562 297.839844 145.023438 297.839844 145.238281 Z M 297.839844 145.238281 "/>
<path style=" stroke:none;fill-rule:nonzero;fill:rgb(95.686275%,63.529412%,38.039216%);fill-opacity:1;" d="M 299.039062 144.851562 L 299.746094 144.851562 C 299.957031 144.851562 300.132812 145.027344 300.132812 145.238281 C 300.132812 145.453125 299.957031 145.628906 299.746094 145.628906 L 299.039062 145.628906 C 298.824219 145.628906 298.648438 145.453125 298.648438 145.238281 C 298.648438 145.027344 298.824219 144.851562 299.039062 144.851562 Z M 299.039062 144.851562 "/>
<path style=" stroke:none;fill-rule:nonzero;fill:rgb(95.686275%,63.529412%,38.039216%);fill-opacity:1;" d="M 301.640625 144.785156 L 306.035156 144.785156 C 306.25 144.785156 306.421875 144.960938 306.421875 145.175781 C 306.421875 145.390625 306.25 145.5625 306.035156 145.5625 L 301.640625 145.5625 C 301.425781 145.5625 301.253906 145.390625 301.253906 145.175781 C 301.253906 144.960938 301.425781 144.785156 301.640625 144.785156 Z M 301.640625 144.785156 "/>
<path style=" stroke:none;fill-rule:nonzero;fill:rgb(95.686275%,63.529412%,38.039216%);fill-opacity:1;" d="M 298.902344 146.605469 L 299.609375 146.605469 C 299.824219 146.605469 299.996094 146.78125 299.996094 146.996094 C 299.996094 147.207031 299.824219 147.382812 299.609375 147.382812 L 298.902344 147.382812 C 298.6875 147.382812 298.515625 147.207031 298.515625 146.996094 C 298.515625 146.78125 298.6875 146.605469 298.902344 146.605469 Z M 298.902344 146.605469 "/>
<path style=" stroke:none;fill-rule:nonzero;fill:rgb(95.686275%,63.529412%,38.039216%);fill-opacity:1;" d="M 301.195312 146.605469 L 301.902344 146.605469 C 302.113281 146.605469 302.289062 146.78125 302.289062 146.996094 C 302.289062 147.207031 302.113281 147.382812 301.902344 147.382812 L 301.195312 147.382812 C 300.980469 147.382812 300.804688 147.207031 300.804688 146.996094 C 300.804688 146.78125 300.980469 146.605469 301.195312 146.605469 Z M 301.195312 146.605469 "/>
<path style=" stroke:none;fill-rule:nonzero;fill:rgb(95.686275%,63.529412%,38.039216%);fill-opacity:1;" d="M 297.800781 146.929688 C 297.800781 147.144531 297.625 147.316406 297.410156 147.316406 L 296.730469 147.316406 C 296.765625 147.054688 296.808594 146.796875 296.855469 146.542969 L 297.410156 146.542969 C 297.515625 146.542969 297.613281 146.582031 297.6875 146.652344 C 297.757812 146.726562 297.800781 146.824219 297.800781 146.929688 Z M 297.800781 146.929688 "/>
<path style=" stroke:none;fill-rule:nonzero;fill:rgb(95.686275%,63.529412%,38.039216%);fill-opacity:1;" d="M 303.796875 146.539062 L 308.191406 146.539062 C 308.40625 146.539062 308.578125 146.714844 308.578125 146.929688 C 308.578125 147.144531 308.40625 147.316406 308.191406 147.316406 L 303.796875 147.316406 C 303.582031 147.316406 303.410156 147.144531 303.410156 146.929688 C 303.410156 146.714844 303.582031 146.539062 303.796875 146.539062 Z M 303.796875 146.539062 "/>
<path style=" stroke:none;fill-rule:nonzero;fill:rgb(80%,80%,80%);fill-opacity:1;" d="M 297.976562 149.488281 C 297.976562 149.589844 297.933594 149.6875 297.859375 149.761719 C 297.789062 149.832031 297.6875 149.875 297.585938 149.871094 L 296.882812 149.871094 C 296.78125 149.875 296.6875 149.835938 296.613281 149.769531 L 296.613281 149.761719 C 296.601562 149.621094 296.601562 149.484375 296.601562 149.34375 L 296.601562 149.21875 L 296.605469 149.210938 C 296.679688 149.140625 296.777344 149.097656 296.882812 149.097656 L 297.585938 149.097656 C 297.800781 149.097656 297.976562 149.273438 297.976562 149.488281 Z M 297.976562 149.488281 "/>
<path style=" stroke:none;fill-rule:nonzero;fill:rgb(80%,80%,80%);fill-opacity:1;" d="M 299.484375 149.03125 L 303.878906 149.03125 C 304.09375 149.03125 304.265625 149.207031 304.265625 149.421875 C 304.265625 149.636719 304.09375 149.808594 303.878906 149.808594 L 299.484375 149.808594 C 299.269531 149.808594 299.097656 149.636719 299.097656 149.421875 C 299.097656 149.207031 299.269531 149.03125 299.484375 149.03125 Z M 299.484375 149.03125 "/>
<path style=" stroke:none;fill-rule:nonzero;fill:rgb(80%,80%,80%);fill-opacity:1;" d="M 297.839844 151.238281 C 297.839844 151.453125 297.667969 151.628906 297.453125 151.628906 L 296.773438 151.628906 C 296.730469 151.378906 296.703125 151.121094 296.675781 150.863281 C 296.699219 150.855469 296.722656 150.851562 296.746094 150.851562 L 297.453125 150.851562 C 297.664062 150.851562 297.839844 151.023438 297.839844 151.238281 Z M 297.839844 151.238281 "/>
<path style=" stroke:none;fill-rule:nonzero;fill:rgb(80%,80%,80%);fill-opacity:1;" d="M 299.039062 150.851562 L 299.746094 150.851562 C 299.957031 150.851562 300.132812 151.027344 300.132812 151.238281 C 300.132812 151.453125 299.957031 151.628906 299.746094 151.628906 L 299.039062 151.628906 C 298.824219 151.628906 298.648438 151.453125 298.648438 151.238281 C 298.648438 151.027344 298.824219 150.851562 299.039062 150.851562 Z M 299.039062 150.851562 "/>
<path style=" stroke:none;fill-rule:nonzero;fill:rgb(80%,80%,80%);fill-opacity:1;" d="M 301.640625 150.785156 L 306.035156 150.785156 C 306.25 150.785156 306.421875 150.960938 306.421875 151.175781 C 306.421875 151.390625 306.25 151.5625 306.035156 151.5625 L 301.640625 151.5625 C 301.425781 151.5625 301.253906 151.390625 301.253906 151.175781 C 301.253906 150.960938 301.425781 150.785156 301.640625 150.785156 Z M 301.640625 150.785156 "/>
<path style=" stroke:none;fill-rule:nonzero;fill:rgb(80%,80%,80%);fill-opacity:1;" d="M 298.902344 152.605469 L 299.609375 152.605469 C 299.824219 152.605469 299.996094 152.78125 299.996094 152.996094 C 299.996094 153.207031 299.824219 153.382812 299.609375 153.382812 L 298.902344 153.382812 C 298.6875 153.382812 298.515625 153.207031 298.515625 152.996094 C 298.515625 152.78125 298.6875 152.605469 298.902344 152.605469 Z M 298.902344 152.605469 "/>
<path style=" stroke:none;fill-rule:nonzero;fill:rgb(80%,80%,80%);fill-opacity:1;" d="M 301.195312 152.605469 L 301.902344 152.605469 C 302.113281 152.605469 302.289062 152.78125 302.289062 152.996094 C 302.289062 153.207031 302.113281 153.382812 301.902344 153.382812 L 301.195312 153.382812 C 300.980469 153.382812 300.804688 153.207031 300.804688 152.996094 C 300.804688 152.78125 300.980469 152.605469 301.195312 152.605469 Z M 301.195312 152.605469 "/>
<path style=" stroke:none;fill-rule:nonzero;fill:rgb(80%,80%,80%);fill-opacity:1;" d="M 297.800781 152.929688 C 297.800781 153.144531 297.625 153.316406 297.410156 153.316406 L 297.125 153.316406 C 297.058594 153.0625 296.996094 152.808594 296.941406 152.542969 L 297.410156 152.542969 C 297.515625 152.542969 297.613281 152.582031 297.6875 152.652344 C 297.757812 152.726562 297.800781 152.824219 297.800781 152.929688 Z M 297.800781 152.929688 "/>
<path style=" stroke:none;fill-rule:nonzero;fill:rgb(80%,80%,80%);fill-opacity:1;" d="M 303.796875 152.539062 L 308.191406 152.539062 C 308.40625 152.539062 308.578125 152.714844 308.578125 152.929688 C 308.578125 153.144531 308.40625 153.316406 308.191406 153.316406 L 303.796875 153.316406 C 303.582031 153.316406 303.410156 153.144531 303.410156 152.929688 C 303.410156 152.714844 303.582031 152.539062 303.796875 152.539062 Z M 303.796875 152.539062 "/>
</g>
</svg>
