<svg id="_490_cpu_flatline" data-name="#490_cpu_flatline" xmlns="http://www.w3.org/2000/svg" viewBox="0 0 400 300" width="406" height="306" class="illustration styles_illustrationTablet__1DWOa"><path d="M356.48,148.73,200,58.38,73.93,131.17l-5.47-2.89v6.05c4,2.86,3.72,7.07-.9,9.74s-11.91,2.84-16.87.52l-9.15,5.28L36.08,147V153L200,247.67l122.82-70.91v-6l-1.5.86a7.48,7.48,0,0,1,3.54-3.83c4.23-2.44,10.67-2.83,15.6-1.17L363.92,153V147Z" fill="#231f20"></path><path d="M200,248.17a.55.55,0,0,1-.25-.07L35.83,153.46a.5.5,0,0,1-.25-.43V147a.5.5,0,0,1,.24-.43.5.5,0,0,1,.49,0l5.22,2.77,8.91-5.15a.52.52,0,0,1,.47,0c4.89,2.29,11.94,2.08,16.4-.49,2.14-1.24,3.37-2.86,3.45-4.55s-.85-3.11-2.59-4.35a.52.52,0,0,1-.21-.41v-6.05a.5.5,0,0,1,.24-.43.5.5,0,0,1,.49,0l5.23,2.76L199.75,58a.5.5,0,0,1,.5,0l156.3,90.24,7.26-1.7a.49.49,0,0,1,.42.09.51.51,0,0,1,.19.39V153a.5.5,0,0,1-.25.44L340.71,167a.46.46,0,0,1-.41,0c-4.92-1.65-11.17-1.19-15.19,1.14a8.58,8.58,0,0,0-2.49,2.07.51.51,0,0,1,.45,0,.52.52,0,0,1,.25.44v6a.5.5,0,0,1-.25.43L200.25,248.1A.55.55,0,0,1,200,248.17ZM36.58,152.74,200,247.09l122.32-70.62v-4.9l-.75.43a.48.48,0,0,1-.56,0,.51.51,0,0,1-.16-.55,8,8,0,0,1,3.76-4.1c4.19-2.42,10.66-2.94,15.8-1.28l23-13.29v-5.13l-6.83,1.6a.5.5,0,0,1-.36-.05L200,59,74.18,131.61a.56.56,0,0,1-.49,0L69,129.11v5a6.08,6.08,0,0,1,2.8,5.06c-.1,2-1.5,4-4,5.36-4.64,2.68-11.93,2.95-17.09.65l-8.93,5.16a.53.53,0,0,1-.49,0l-4.72-2.51Z" fill="#231f20"></path><path d="M200,52.33,363.92,147l-23.46,13.55c-4.93-1.66-11.37-1.27-15.6,1.17s-4.92,6.17-2,9L200,241.62,36.08,147l14.61-8.44c5,2.32,12.26,2.14,16.87-.52s4.92-6.88.9-9.74Z" fill="#f4a261"></path><path d="M200,242.12a.55.55,0,0,1-.25-.07L35.83,147.41a.5.5,0,0,1,0-.87l14.61-8.44a.52.52,0,0,1,.47,0c4.89,2.29,11.94,2.08,16.4-.49,2.14-1.24,3.37-2.86,3.45-4.55s-.85-3.11-2.59-4.35a.5.5,0,0,1,0-.84L199.75,51.9a.5.5,0,0,1,.5,0l163.92,94.64a.5.5,0,0,1,0,.87L340.71,161a.46.46,0,0,1-.41,0c-4.92-1.65-11.17-1.19-15.19,1.14-2.05,1.18-3.29,2.72-3.5,4.34a4.57,4.57,0,0,0,1.56,3.88.51.51,0,0,1-.1.79L200.25,242.05A.55.55,0,0,1,200,242.12ZM37.08,147,200,241l122-70.45a5.36,5.36,0,0,1-1.4-4.25c.25-1.93,1.66-3.74,4-5.08,4.19-2.42,10.66-2.94,15.8-1.28l22.51-13L200,52.91,69.35,128.34a5.88,5.88,0,0,1,2.41,4.75c-.1,2-1.5,3.95-4,5.36-4.64,2.68-11.93,3-17.09.65Z" fill="#231f20"></path><polygon points="189.82 66.99 212.49 66.99 201.16 60.44 189.82 66.99" fill="#231f20"></polygon><path d="M212.49,67.49H189.82a.5.5,0,0,1-.25-.93L200.91,60a.5.5,0,0,1,.5,0l11.33,6.55a.49.49,0,0,1,.24.56A.5.5,0,0,1,212.49,67.49Zm-20.81-1h18.95L201.16,61Z" fill="#231f20"></path><path d="M200,237.59a.41.41,0,0,1-.19-.05L43.52,147.3a.37.37,0,0,1-.19-.32.37.37,0,0,1,.19-.33l7.85-4.53a.39.39,0,0,1,.28,0c6.7,1.66,14.37.8,19.54-2.18,2.76-1.6,4.54-3.69,5-5.88a6.18,6.18,0,0,0-1.26-5,.39.39,0,0,1-.06-.3.41.41,0,0,1,.18-.25l124.77-72a.42.42,0,0,1,.38,0l156.29,90.24a.37.37,0,0,1,.19.32.37.37,0,0,1-.19.33l-17.08,9.86a.37.37,0,0,1-.25.05c-6.36-1.1-13.23-.1-17.92,2.61s-6.28,6.47-4.46,10a.38.38,0,0,1-.14.5L200.19,237.54A.45.45,0,0,1,200,237.59ZM44.46,147,200,236.78l116-66.94c-1.77-3.83.09-7.89,4.91-10.67s11.79-3.81,18.28-2.73l16.4-9.47L200,57.17,75.77,128.9a6.81,6.81,0,0,1,1.15,5.27c-.51,2.44-2.36,4.65-5.36,6.38-5.29,3-13.1,3.95-20,2.29Z" fill="#fff"></path><path d="M316.68,140.23,209,78.05c-5.71-3.29-14.95-3.29-20.65,0L80.62,140.24c-5.7,3.29-5.7,8.63,0,11.92l35.47,20.48,7.17-4.14,26,15v8.28l39,22.54c5.7,3.29,15,3.29,20.65,0l107.71-62.19C322.38,148.86,322.38,143.52,316.68,140.23Z" fill="#231f20"></path><path d="M198.65,217.3a21.7,21.7,0,0,1-10.58-2.53l-39-22.54a.5.5,0,0,1-.25-.43v-8l-25.52-14.73-6.92,4a.5.5,0,0,1-.5,0L80.37,152.59c-2.92-1.68-4.53-4-4.53-6.39s1.61-4.71,4.53-6.4L188.08,77.62c5.83-3.37,15.32-3.37,21.15,0l107.7,62.18c2.92,1.68,4.52,3.95,4.52,6.39s-1.6,4.71-4.52,6.4L209.22,214.77A21.66,21.66,0,0,1,198.65,217.3Zm-48.87-25.79,38.79,22.4c5.55,3.2,14.6,3.2,20.15,0l107.71-62.19c2.59-1.5,4-3.46,4-5.53s-1.43-4-4-5.53L208.73,78.48c-5.56-3.2-14.6-3.2-20.15,0L80.87,140.67c-2.6,1.5-4,3.46-4,5.53s1.43,4,4,5.53l35.22,20.33,6.92-4a.5.5,0,0,1,.5,0l26,15a.5.5,0,0,1,.25.43Z" fill="#231f20"></path><path d="M209,68.67l107.7,62.18c5.7,3.29,5.7,8.63,0,11.92L209,205c-5.7,3.29-14.95,3.29-20.65,0l-39-22.54,3.33-6.35-29.35-16.95-7.17,4.14L80.62,142.78c-5.7-3.29-5.7-8.63,0-11.92L188.33,68.67C194,65.38,203.27,65.38,209,68.67Z" fill="#fff"></path><path d="M198.65,207.92a21.7,21.7,0,0,1-10.58-2.53l-39-22.54a.51.51,0,0,1-.2-.67l3.12-5.92L123.26,159.7l-6.92,4a.5.5,0,0,1-.5,0L80.37,143.21c-2.92-1.68-4.53-4-4.53-6.39s1.61-4.71,4.53-6.4L188.08,68.24c5.83-3.37,15.32-3.37,21.15,0l107.7,62.18c2.92,1.68,4.52,4,4.52,6.39s-1.6,4.71-4.52,6.4L209.22,205.39A21.66,21.66,0,0,1,198.65,207.92Zm-48.71-25.7,38.63,22.31c5.55,3.2,14.6,3.2,20.15,0l107.71-62.19c2.59-1.5,4-3.46,4-5.53s-1.43-4-4-5.53L208.73,69.1c-5.56-3.2-14.6-3.2-20.15,0L80.87,131.29c-2.6,1.5-4,3.46-4,5.53s1.43,4,4,5.53l35.22,20.33,6.92-4a.5.5,0,0,1,.5,0l29.35,16.95a.49.49,0,0,1,.2.66Z" fill="#231f20"></path><path d="M288.1,142.36l-79.84,46.1c-5.31,3.06-14.58,2.68-20.71-.86l-76.87-44.38c-6.12-3.54-6.79-8.89-1.48-11.95L189,85.17c5.31-3.07,14.58-2.68,20.71.86l76.87,44.38C292.75,134,293.41,139.3,288.1,142.36Z" fill="#d1d3d4"></path><path d="M199.27,191a24.55,24.55,0,0,1-12-3l-76.87-44.38c-3.38-2-5.32-4.57-5.32-7.19,0-2.2,1.36-4.2,3.84-5.63l79.84-46.09c5.44-3.14,15-2.76,21.21.85L286.87,130c3.38,2,5.32,4.57,5.32,7.19,0,2.2-1.36,4.2-3.84,5.62l-79.84,46.1A18.81,18.81,0,0,1,199.27,191ZM198,83.6a17.78,17.78,0,0,0-8.74,2l-79.84,46.1c-2.15,1.24-3.34,2.93-3.34,4.76,0,2.25,1.76,4.56,4.82,6.33l76.87,44.38c6,3.45,15,3.83,20.21.86l79.84-46.1h0c2.15-1.24,3.34-2.93,3.34-4.76,0-2.25-1.76-4.56-4.82-6.33L209.5,86.46A23.62,23.62,0,0,0,198,83.6Z" fill="#d1d3d4"></path><polygon points="291.69 137.38 291.69 131.58 287.08 134.29 291.69 137.38" fill="#d1d3d4"></polygon><path d="M291.69,137.89a.47.47,0,0,1-.28-.09l-4.61-3.1a.51.51,0,0,1-.22-.43.49.49,0,0,1,.25-.41l4.6-2.71a.5.5,0,0,1,.5,0,.51.51,0,0,1,.26.44v5.81a.52.52,0,0,1-.27.44A.46.46,0,0,1,291.69,137.89ZM288,134.32l3.17,2.13v-4Z" fill="#d1d3d4"></path><ellipse cx="345.74" cy="146.95" rx="3.4" ry="1.96" fill="#231f20"></ellipse><path d="M345.74,149.42a5.39,5.39,0,0,1-2.65-.65,2,2,0,0,1,0-3.64,5.77,5.77,0,0,1,5.3,0,1.95,1.95,0,0,1,0,3.64A5.36,5.36,0,0,1,345.74,149.42Zm0-3.93a4.38,4.38,0,0,0-2.15.51,1.24,1.24,0,0,0-.74.95,1.27,1.27,0,0,0,.74,1,4.85,4.85,0,0,0,4.3,0c.48-.28.75-.63.75-1a1.23,1.23,0,0,0-.75-.95A4.35,4.35,0,0,0,345.74,145.49Z" fill="#231f20"></path><ellipse cx="199.86" cy="231.18" rx="3.4" ry="1.96" fill="#231f20"></ellipse><path d="M199.86,233.64a5.36,5.36,0,0,1-2.65-.64,1.95,1.95,0,0,1,0-3.64,5.77,5.77,0,0,1,5.3,0,2,2,0,0,1,0,3.64A5.39,5.39,0,0,1,199.86,233.64Zm0-3.92a4.46,4.46,0,0,0-2.15.5c-.48.28-.75.63-.75,1a1.23,1.23,0,0,0,.75.95,4.85,4.85,0,0,0,4.3,0,1.24,1.24,0,0,0,.74-.95,1.27,1.27,0,0,0-.74-1A4.49,4.49,0,0,0,199.86,229.72Z" fill="#231f20"></path><ellipse cx="53.6" cy="146.74" rx="3.4" ry="1.96" fill="#231f20"></ellipse><path d="M53.6,149.2a5.39,5.39,0,0,1-2.65-.64,2,2,0,0,1,0-3.64,5.77,5.77,0,0,1,5.3,0,1.95,1.95,0,0,1,0,3.64A5.39,5.39,0,0,1,53.6,149.2Zm0-3.92a4.49,4.49,0,0,0-2.15.5c-.47.28-.74.62-.74,1a1.24,1.24,0,0,0,.74.95,4.85,4.85,0,0,0,4.3,0,1.23,1.23,0,0,0,.75-.95c0-.34-.27-.68-.75-1A4.49,4.49,0,0,0,53.6,145.28Z" fill="#231f20"></path><path d="M191.74,228a1,1,0,0,1-.5-.13l-1.74-1a1,1,0,1,1,1-1.73l1.73,1a1,1,0,0,1-.49,1.87Zm-6.08-3.48a1,1,0,0,1-.49-.13l-1.74-1a1,1,0,0,1,1-1.73l1.74,1a1,1,0,0,1-.5,1.87ZM179.59,221a1,1,0,0,1-.5-.13l-1.73-1a1,1,0,1,1,1-1.74l1.73,1a1,1,0,0,1-.49,1.87Zm-6.08-3.48a1,1,0,0,1-.49-.13l-1.74-1a1,1,0,0,1,1-1.74l1.73,1a1,1,0,0,1-.5,1.86Zm-6.07-3.48a1,1,0,0,1-.5-.13l-1.73-1a1,1,0,0,1-.38-1.36,1,1,0,0,1,1.37-.38l1.74,1a1,1,0,0,1,.37,1.36A1,1,0,0,1,167.44,214.08Zm-6.08-3.47a1,1,0,0,1-.49-.14l-1.74-1a1,1,0,1,1,1-1.73l1.73,1a1,1,0,0,1-.5,1.87Zm-6.07-3.48a1,1,0,0,1-.5-.13l-1.73-1a1,1,0,1,1,1-1.73l1.74,1a1,1,0,0,1-.5,1.87Zm-6.08-3.48a1,1,0,0,1-.49-.13l-1.74-1a1,1,0,0,1-.37-1.36,1,1,0,0,1,1.37-.37l1.73,1a1,1,0,0,1-.5,1.87Zm-6.07-3.48a1,1,0,0,1-.5-.13l-1.73-1a1,1,0,0,1,1-1.74l1.74,1a1,1,0,0,1-.5,1.87Zm-6.07-3.48a1,1,0,0,1-.5-.13l-1.74-1a1,1,0,0,1,1-1.74l1.73,1a1,1,0,0,1-.49,1.86ZM131,193.21a1,1,0,0,1-.5-.13l-1.73-1a1,1,0,0,1,1-1.74l1.74,1a1,1,0,0,1,.37,1.36A1,1,0,0,1,131,193.21Zm-6.07-3.47a1,1,0,0,1-.5-.14l-1.74-1a1,1,0,0,1,1-1.74l1.73,1a1,1,0,0,1-.49,1.87Z" fill="#231f20"></path><path d="M187,220.8a1,1,0,0,1-.49-.13l-1.74-1a1,1,0,0,1,1-1.73l1.74,1a1,1,0,0,1-.5,1.87Zm-6.07-3.48a1,1,0,0,1-.5-.13l-1.73-1a1,1,0,1,1,1-1.73l1.74,1a1,1,0,0,1-.5,1.87Zm-6.08-3.48a1,1,0,0,1-.49-.13l-1.74-1a1,1,0,0,1,1-1.74l1.73,1a1,1,0,0,1-.5,1.87Zm-6.07-3.48a1,1,0,0,1-.5-.13l-1.73-1a1,1,0,0,1,1-1.74l1.74,1a1,1,0,0,1,.37,1.36A1,1,0,0,1,168.73,210.36Zm-6.08-3.48a1,1,0,0,1-.49-.13l-1.74-1a1,1,0,0,1-.37-1.36,1,1,0,0,1,1.37-.38l1.73,1a1,1,0,0,1-.5,1.86Zm-6.07-3.47a1,1,0,0,1-.5-.14l-1.73-1a1,1,0,0,1-.37-1.36,1,1,0,0,1,1.36-.38l1.74,1a1,1,0,0,1-.5,1.87Zm-6.08-3.48a1,1,0,0,1-.49-.13l-1.74-1a1,1,0,1,1,1-1.73l1.73,1a1,1,0,0,1-.5,1.87Zm-6.07-3.48a1,1,0,0,1-.5-.13l-1.73-1a1,1,0,0,1,1-1.73l1.74,1a1,1,0,0,1-.5,1.87ZM138.36,193a1,1,0,0,1-.5-.13l-1.74-1a1,1,0,0,1,1-1.74l1.73,1a1,1,0,0,1,.37,1.37A1,1,0,0,1,138.36,193Zm-6.08-3.48a1,1,0,0,1-.49-.13l-1.74-1a1,1,0,0,1,1-1.74l1.74,1a1,1,0,0,1,.37,1.37A1,1,0,0,1,132.28,189.49ZM126.21,186a1,1,0,0,1-.5-.13l-1.74-1a1,1,0,0,1,1-1.74l1.73,1a1,1,0,0,1,.38,1.36A1,1,0,0,1,126.21,186Zm-6.08-3.47a1,1,0,0,1-.49-.14l-1.74-1a1,1,0,0,1,1-1.74l1.74,1a1,1,0,0,1-.5,1.87Z" fill="#231f20"></path><path d="M234.94,211.24a1,1,0,0,1-.87-.51,1,1,0,0,1,.37-1.36l1.74-1a1,1,0,0,1,1,1.74l-1.74,1A1,1,0,0,1,234.94,211.24Zm6.07-3.48a1,1,0,0,1-.5-1.87l1.74-1a1,1,0,0,1,1,1.74l-1.74,1A1,1,0,0,1,241,207.76Zm6.08-3.48a1,1,0,0,1-.5-1.87l1.74-1a1,1,0,0,1,1,1.73l-1.74,1A1,1,0,0,1,247.09,204.28Zm6.07-3.48a1,1,0,0,1-.5-1.87l1.74-1a1,1,0,0,1,1,1.73l-1.73,1A1,1,0,0,1,253.16,200.8Zm6.08-3.48a1,1,0,0,1-.5-1.87l1.73-1a1,1,0,0,1,1.37.37,1,1,0,0,1-.37,1.37l-1.74,1A1,1,0,0,1,259.24,197.32Zm6.07-3.48a1,1,0,0,1-.5-1.87l1.74-1a1,1,0,0,1,1,1.74l-1.73,1A1,1,0,0,1,265.31,193.84Zm6.08-3.48a1,1,0,0,1-.5-1.86l1.73-1a1,1,0,0,1,1,1.74l-1.74,1A1,1,0,0,1,271.39,190.36Zm6.07-3.47A1,1,0,0,1,277,185l1.74-1a1,1,0,0,1,1.36.38,1,1,0,0,1-.37,1.36l-1.73,1A1,1,0,0,1,277.46,186.89Zm6.08-3.48a1,1,0,0,1-.5-1.87l1.73-1a1,1,0,1,1,1,1.73l-1.74,1A1,1,0,0,1,283.54,183.41Zm6.07-3.48a1,1,0,0,1-.87-.5,1,1,0,0,1,.37-1.37l1.74-1a1,1,0,0,1,1,1.73l-1.73,1A1,1,0,0,1,289.61,179.93Zm6.07-3.48a1,1,0,0,1-.49-1.87l1.73-1a1,1,0,0,1,1.37.37,1,1,0,0,1-.37,1.37l-1.74,1A1,1,0,0,1,295.68,176.45Zm6.08-3.48a1,1,0,0,1-.87-.5,1,1,0,0,1,.37-1.37l1.74-1a1,1,0,0,1,1,1.74l-1.74,1A1,1,0,0,1,301.76,173Z" fill="#231f20"></path><path d="M240.79,202.92a1,1,0,0,1-.87-.5,1,1,0,0,1,.37-1.36l1.74-1a1,1,0,0,1,1,1.74l-1.73,1A1,1,0,0,1,240.79,202.92Zm6.07-3.47a1,1,0,0,1-.49-1.87l1.73-1a1,1,0,0,1,1.37.38,1,1,0,0,1-.37,1.36l-1.74,1A1,1,0,0,1,246.86,199.45Zm6.08-3.48a1,1,0,0,1-.5-1.87l1.74-1a1,1,0,1,1,1,1.73l-1.73,1A1.13,1.13,0,0,1,252.94,196Zm6.07-3.48a1,1,0,0,1-.49-1.87l1.73-1a1,1,0,1,1,1,1.73l-1.74,1A1,1,0,0,1,259,192.49Zm6.08-3.48a1,1,0,0,1-.5-1.87l1.74-1a1,1,0,0,1,1.36.37,1,1,0,0,1-.37,1.37l-1.74,1A1,1,0,0,1,265.09,189Zm6.07-3.48a1,1,0,0,1-.49-1.87l1.73-1a1,1,0,1,1,1,1.74l-1.73,1A1,1,0,0,1,271.16,185.53Zm6.08-3.48a1,1,0,0,1-.5-1.86l1.73-1a1,1,0,1,1,1,1.74l-1.74,1A1,1,0,0,1,277.24,182.05Zm6.07-3.47a1,1,0,0,1-.87-.51,1,1,0,0,1,.37-1.36l1.74-1a1,1,0,1,1,1,1.74l-1.73,1A1,1,0,0,1,283.31,178.58Zm6.08-3.48a1,1,0,0,1-.5-1.87l1.73-1a1,1,0,1,1,1,1.73l-1.74,1A1.05,1.05,0,0,1,289.39,175.1Zm6.07-3.48a1,1,0,0,1-.5-1.87l1.74-1a1,1,0,1,1,1,1.73l-1.73,1A1,1,0,0,1,295.46,171.62Zm6.08-3.48a1,1,0,0,1-.5-1.87l1.73-1a1,1,0,0,1,1.37.37,1,1,0,0,1-.37,1.36L302,168A1,1,0,0,1,301.54,168.14Zm6.07-3.48a1,1,0,0,1-.5-1.87l1.74-1a1,1,0,0,1,1,1.74l-1.73,1A1,1,0,0,1,307.61,164.66Z" fill="#231f20"></path><polyline points="105.61 130.42 105.61 136.47 107.66 138.09 105.61 129.78" fill="#d1d3d4"></polyline><path d="M107.66,138.59a.51.51,0,0,1-.31-.11l-2-1.62a.49.49,0,0,1-.19-.39v-6.05a.5.5,0,0,1,.08-.27l-.06-.25a.49.49,0,0,1,.36-.6.5.5,0,0,1,.61.36l2,8.31a.5.5,0,0,1-.21.54A.56.56,0,0,1,107.66,138.59Zm-1.55-2.36.71.56-.71-2.88Z" fill="#d1d3d4"></path><path d="M288.1,136.81l-79.84,46.1c-5.31,3.07-14.58,2.68-20.71-.86l-76.87-44.38c-6.12-3.54-6.79-8.89-1.48-11.95L189,79.62c5.31-3.06,14.58-2.68,20.71.86l76.87,44.38C292.75,128.4,293.41,133.75,288.1,136.81Z" fill="#fff"></path><path d="M199.27,185.47a24.65,24.65,0,0,1-12-3L110.43,138.1c-3.38-1.95-5.32-4.57-5.32-7.19,0-2.2,1.36-4.2,3.84-5.62l79.84-46.1c5.44-3.14,15-2.76,21.21.85l76.87,44.39c3.38,1.95,5.32,4.57,5.32,7.19,0,2.2-1.36,4.2-3.84,5.63l-79.84,46.09A18.81,18.81,0,0,1,199.27,185.47ZM198,78.05a17.89,17.89,0,0,0-8.74,2l-79.84,46.1c-2.15,1.24-3.34,2.93-3.34,4.76,0,2.25,1.76,4.56,4.82,6.33l76.87,44.38c6,3.46,15,3.84,20.21.86l79.84-46.1c2.15-1.24,3.34-2.93,3.34-4.76,0-2.25-1.76-4.56-4.82-6.33L209.5,80.91A23.62,23.62,0,0,0,198,78.05Zm90.07,58.76h0Z" fill="#d1d3d4"></path><path d="M188.58,160.27a22.8,22.8,0,0,1-11-3.22l-24.49-14.14q-5.34-3.09-5.57-6.34t4.92-6.22a20.25,20.25,0,0,1,10.78-2.84,22.76,22.76,0,0,1,11,3.21l4.82,2.79-6.78,3.91-5.28-3q-4.23-2.44-7.81-.37t.65,4.51l25.47,14.71q4.17,2.4,7.75.33c2.39-1.37,2.2-2.87-.58-4.47l-7-4,6.77-3.91,6.45,3.73c3.57,2,5.42,4.17,5.57,6.33s-1.48,4.25-4.92,6.23A20.25,20.25,0,0,1,188.58,160.27Z" fill="#d1d3d4"></path><path d="M168,122.15l10.56-6.1a20.74,20.74,0,0,1,10.88-3,23,23,0,0,1,11.07,3.31L205,119q5.53,3.2,5.73,6.39c.13,2.13-1.59,4.23-5.15,6.28l-3.38,2,18.56,10.72-7.16,4.14ZM199,127.9c1.17-.68,1.73-1.37,1.66-2.09s-.88-1.52-2.44-2.42l-5.41-3.12a9,9,0,0,0-4.2-1.41,6.76,6.76,0,0,0-3.62,1l-3.39,2,14,8.09Z" fill="#d1d3d4"></path><path d="M238.88,131.19a23.19,23.19,0,0,1-11.24-3.33l-34.79-20.08,7.17-4.14L235.33,124a9.38,9.38,0,0,0,4.33,1.41,7,7,0,0,0,3.75-1c1.17-.68,1.72-1.4,1.66-2.16s-.88-1.6-2.45-2.51L207.31,99.43l6.91-4L249,115.53q5.53,3.19,5.76,6.49c.16,2.19-1.51,4.29-5,6.3A20.57,20.57,0,0,1,238.88,131.19Z" fill="#d1d3d4"></path></svg>